<?xml version="1.0" encoding="UTF-8"?>
<svg version="1.1" xmlns="http://www.w3.org/2000/svg" width="641" height="871">
<path d="M0 0 C0.66 0 1.32 0 2 0 C6.53090316 10.10739935 10.94101962 20.25627715 15 30.5625 C16.83520464 35.21935412 18.79448472 39.78772504 20.9375 44.3125 C23.72075348 50.22055505 26.06778237 56.24268247 28.39208984 62.34033203 C30.54398325 67.94142689 32.96274502 73.36514507 35.53125 78.7890625 C37.72251199 83.57953419 39.63352753 88.4721478 41.56640625 93.37109375 C44.49352297 100.7806072 47.55475027 108.09889603 50.9375 115.3125 C54.19967209 122.43601865 57.09017634 129.72544084 60 137 C83.1 137 106.2 137 130 137 C132.97 129.41 135.94 121.82 139 114 C142.1875 107 142.1875 107 143.60546875 104.03125 C145.70700674 99.46320104 147.50532911 94.78378873 149.3125 90.09375 C150.66382077 86.70495237 152.19293565 83.41593195 153.7421875 80.11328125 C157.82293228 71.34308269 161.41157975 62.37758359 165.04638672 53.41577148 C165.94762362 51.19669722 166.8526233 48.97918313 167.7578125 46.76171875 C168.02457794 46.10008224 168.29134338 45.43844574 168.56619263 44.75675964 C170.24306727 40.65088229 172.10642953 36.68760046 174.13598633 32.74377441 C175.25149267 30.49243107 176.07987885 28.19407716 176.875 25.8125 C179.79633391 17.53346278 183.35939148 9.46353062 188 2 C191.71729679 4.47819786 192.46100283 7.1094706 193.9375 11.125 C194.46217327 12.49841899 194.98949508 13.87082926 195.51953125 15.2421875 C195.77299316 15.89799805 196.02645508 16.55380859 196.28759766 17.22949219 C197.1213917 19.30169041 198.08032855 21.27627291 199.125 23.25 C200.65194581 26.1599582 201.78897254 29.08520024 202.875 32.1875 C204.70976397 37.38599791 206.95214396 42.30354853 209.296875 47.2890625 C213.9528452 57.31095579 218.07300352 67.59683075 222.125 77.875 C224.3864419 83.58361279 226.88621454 89.13320591 229.5 94.6875 C231.39462629 98.87146638 233.0725038 103.12993439 234.74560547 107.40527344 C236.78822704 112.58062723 239.08616577 117.6019021 241.5078125 122.609375 C243.57597751 127.30876566 245.24537053 132.17476897 247 137 C270.43 137 293.86 137 318 137 C326.76707217 117.61321952 326.76707217 117.61321952 335 98 C335.91775111 95.97012155 336.85290997 93.94793791 337.8125 91.9375 C340.20462645 86.8278697 342.38900485 81.66677307 344.5 76.4375 C346.91323178 70.47016352 349.52644584 64.69791924 352.54296875 59.00390625 C354.14729341 55.69633074 355.48620201 52.33354334 356.83325195 48.91479492 C358.87451426 43.81526978 361.0451547 38.77065644 363.20898438 33.72216797 C364.00133498 31.87188258 364.78979043 30.01996815 365.578125 28.16796875 C371.37429231 14.62894158 371.37429231 14.62894158 374 10 C375.485 9.505 375.485 9.505 377 9 C377.38478516 9.93392578 377.38478516 9.93392578 377.77734375 10.88671875 C383.66859378 25.10902943 389.65933546 39.27387486 396.25 53.1875 C398.68945171 58.42285299 400.87287177 63.76741033 403.09228516 69.09863281 C405.3921144 74.60620647 407.83522653 80.0262865 410.37109375 85.4296875 C412.49538603 90.08581014 414.49642869 94.79092454 416.5 99.5 C419.32453968 106.1337493 422.22062629 112.7154467 425.27734375 119.24609375 C429.23525749 127.79175641 432.94227867 136.45555362 436.72070312 145.08154297 C437.80577749 147.55692064 438.89389973 150.03090495 439.984375 152.50390625 C443.06227576 159.49436355 446.0581869 166.5136329 449 173.5625 C451.41773396 179.35553235 453.92625351 185.08240728 456.625 190.75 C459.543414 196.8992778 462.10307237 203.11548803 464.54296875 209.46484375 C465.82839935 212.5836499 467.28050672 215.54842564 468.81079102 218.55151367 C471.53823042 224.16709359 473.91674013 229.94991015 476.375 235.6875 C479.99088132 244.11928852 483.6648628 252.50833859 487.53564453 260.82739258 C490.00973543 266.18764787 492.37859467 271.59372136 494.75 277 C495.47123047 278.63775391 495.47123047 278.63775391 496.20703125 280.30859375 C503.36574709 296.60015598 503.36574709 296.60015598 501.33886719 303.12988281 C500.41696803 305.49564627 499.41564538 307.80909102 498.375 310.125 C498.04371094 310.89070313 497.71242188 311.65640625 497.37109375 312.4453125 C495.35823894 317.06348505 493.24623783 321.63392995 491.125 326.203125 C487.84246387 333.29402531 484.72084019 340.45133109 481.625 347.625 C481.05204793 348.94915726 480.47904933 350.2732944 479.90600586 351.59741211 C476.42083284 359.65968885 472.99053547 367.74366237 469.6081543 375.84960938 C467.36742421 381.19523986 464.95939472 386.44828117 462.49609375 391.6953125 C460.73174908 395.59253337 459.10994413 399.53709428 457.5 403.5 C455.52152682 408.36840185 453.49460934 413.18383021 451.25 417.9375 C448.1617352 424.50316751 445.36968409 431.185048 442.5625 437.875 C439.65180154 444.80659829 436.73700366 451.71399234 433.5 458.5 C429.94548714 465.97035918 426.76400445 473.58490972 423.56323242 481.21240234 C419.56399864 490.72073595 415.45519453 500.17844212 411.3125 509.625 C410.99650848 510.34565643 410.68051697 511.06631287 410.35494995 511.80880737 C408.57213763 515.87349382 406.78705989 519.93717886 405 524 C401.57043004 523.35464699 398.66653509 522.53984472 395.5 521.0625 C394.32244141 520.52689453 394.32244141 520.52689453 393.12109375 519.98046875 C392.42113281 519.65691406 391.72117187 519.33335937 391 519 C382.82652668 515.2276277 374.55921641 514.82048894 365.6875 514.8125 C364.81536865 514.81169434 363.9432373 514.81088867 363.04467773 514.81005859 C358.89009915 514.84609831 355.05961749 515.03482778 351 516 C348.11274874 516.37016042 345.97147665 516.28756226 343 516 C340.01090723 511.97122279 338.64873166 507.4245706 337.0625 502.71875 C336.09791709 500.00832831 336.09791709 500.00832831 334.625 497.78125 C332.74330718 494.56066036 331.45019154 491.27962045 330.09765625 487.80957031 C328.14070497 482.80054111 326.06162559 477.84164346 324 472.875 C323.57460938 471.84246094 323.14921875 470.80992187 322.7109375 469.74609375 C320.62433771 464.72161266 318.44564681 459.8170557 315.95922852 454.97949219 C314.49610332 451.96014398 313.31188545 448.84062455 312.08935547 445.71777344 C310.04950869 440.62867117 307.78868575 435.63468348 305.5625 430.625 C301.93668551 422.45811687 298.40254159 414.26265468 295 406 C291.49157306 407.60665044 290.65646309 408.54145068 289 412 C287.35406219 413.91158834 285.66195325 415.78392905 283.9375 417.625 C280.58466353 421.04209753 280.58466353 421.04209753 278 425 C277.34 425 276.68 425 276 425 C275.72687988 425.59151855 275.45375977 426.18303711 275.17236328 426.79248047 C274.0350875 428.93393145 272.84719768 430.51407396 271.2421875 432.3203125 C270.70247314 432.93382568 270.16275879 433.54733887 269.60668945 434.17944336 C269.03523193 434.82147705 268.46377441 435.46351074 267.875 436.125 C263.22199317 441.40364283 258.74494627 446.7341714 254.48828125 452.33984375 C253.99714844 452.88769531 253.50601562 453.43554688 253 454 C252.34 454 251.68 454 251 454 C250.72784668 454.58845703 250.45569336 455.17691406 250.17529297 455.78320312 C249.02708569 457.94891192 247.76243404 459.59338471 246.1953125 461.46875 C242.23761046 466.6591789 240.15192089 472.4306052 237.875 478.5 C233.02649326 491.18417397 233.02649326 491.18417397 229.91552734 497.16308594 C228.0297247 500.94676035 226.61143453 504.93383411 225.11328125 508.8828125 C224.00303408 511.74271619 223.19486194 513.80513806 221 516 C218.0906442 516.14517744 215.280054 516.18630796 212.375 516.125 C211.57320313 516.11597656 210.77140625 516.10695313 209.9453125 516.09765625 C207.96341477 516.07406223 205.98167019 516.03819065 204 516 C204.02094727 517.22517334 204.04189453 518.45034668 204.06347656 519.71264648 C204.1362981 524.29162748 204.18195214 528.87055807 204.21972656 533.44995117 C204.23974646 535.4256249 204.26697092 537.40124009 204.30175781 539.37670898 C204.35070207 542.2291515 204.37306525 545.08080549 204.390625 547.93359375 C204.41127014 548.80584091 204.43191528 549.67808807 204.45318604 550.57676697 C204.45544542 556.85999878 202.94973255 561.46932986 200 567 C199.34 566.67 198.68 566.34 198 566 C197.30087155 563.83505181 196.69051222 561.64112819 196.125 559.4375 C193.66715653 550.3919517 190.37590501 544.10035604 184.390625 536.8828125 C183 535 183 535 183 533 C182.41734375 532.72929688 181.8346875 532.45859375 181.234375 532.1796875 C179.01083007 531.00571797 177.21258413 529.69020139 175.25 528.125 C170.46878532 524.48132338 165.64014785 521.60926489 159.75 520.25 C155.4959222 518.31632827 154.7592138 515.14378914 153 511 C152.25825416 509.36520777 151.51181773 507.73253892 150.76171875 506.1015625 C147.69919883 499.3812976 144.78187403 492.60124696 141.875 485.8125 C141.3451147 484.58135326 140.81516703 483.35023335 140.28515625 482.11914062 C136.03063165 472.19371172 136.03063165 472.19371172 134.36328125 467.41015625 C133.03807635 464.09524542 131.77823293 462.1579332 129.3125 459.625 C126 456.18219462 126 456.18219462 126 454 C125.34 454 124.68 454 124 454 C122.66796875 452.42578125 122.66796875 452.42578125 121.1875 450.3125 C118.745896 446.83665087 116.01139453 443.99393717 113 441 C110.85298269 438.64058367 108.76742509 436.23107632 106.6875 433.8125 C106.13771484 433.18408203 105.58792969 432.55566406 105.02148438 431.90820312 C101 427.23728649 101 427.23728649 101 425 C100.4225 424.79375 99.845 424.5875 99.25 424.375 C96.17855061 422.49800315 94.94557229 420.00679355 93 417 C92.13375 416.13375 91.2675 415.2675 90.375 414.375 C88.26189536 412.26189536 87.11190951 410.72923244 86 408 C85.01 408 84.02 408 83 408 C82.60321045 408.9293335 82.2064209 409.85866699 81.79760742 410.81616211 C74.86930076 427.03772057 67.92687565 443.25049274 60.79492188 459.38378906 C56.7816175 468.46954806 52.86323685 477.59444427 48.96826172 486.73144531 C48.07695847 488.81969285 47.182167 490.90638644 46.28515625 492.9921875 C43.46014716 499.56231042 40.68328037 506.14808014 37.98046875 512.76953125 C37 515 37 515 36 516 C33.82194281 516.09429342 31.6407872 516.11742538 29.46069336 516.11352539 C28.77779739 516.11367142 28.09490143 516.11381744 27.39131165 516.1139679 C25.12412386 516.11326876 22.85701726 516.1054764 20.58984375 516.09765625 C19.02185613 516.09579207 17.45386793 516.09436817 15.88587952 516.09336853 C11.75123497 516.08954334 7.61662534 516.07971306 3.48199463 516.06866455 C-0.73400398 516.05845044 -4.95000822 516.05387091 -9.16601562 516.04882812 C-17.44402647 516.03809079 -25.7220089 516.02101436 -34 516 C-35.1026109 513.65062687 -36.20379294 511.30060087 -37.30419922 508.95019531 C-37.61181686 508.29511993 -37.91943451 507.64004456 -38.2363739 506.96511841 C-41.3575766 500.29294682 -44.25338965 493.53333154 -47.125 486.75 C-50.32045422 479.21962726 -53.5413687 471.71285128 -56.97851562 464.2890625 C-58.14179547 461.68224801 -59.09870833 459.01643622 -60.06640625 456.33203125 C-61.34575959 453.13632437 -62.83473493 450.04471733 -64.3125 446.9375 C-67.26339247 440.72484938 -69.88550239 434.44449528 -72.34765625 428.0234375 C-73.68926691 424.64489636 -75.2083816 421.36388091 -76.74609375 418.0703125 C-80.68849995 409.59720826 -84.28019104 400.98216191 -87.89550781 392.36572266 C-91.3032068 384.25241965 -94.79015128 376.20105636 -98.51269531 368.22558594 C-101.23554108 362.32042536 -103.79899675 356.34523714 -106.375 350.375 C-106.9472469 349.05158695 -107.51951274 347.7281821 -108.09179688 346.40478516 C-111.89266195 337.60663623 -115.66544628 328.7971334 -119.33984375 319.9453125 C-120.39314147 317.41422649 -121.49010238 314.9257708 -122.62890625 312.4296875 C-123.10199219 311.38039063 -123.57507813 310.33109375 -124.0625 309.25 C-124.66771484 307.95835937 -124.66771484 307.95835937 -125.28515625 306.640625 C-127.10753344 299.90878357 -123.85739124 293.51919503 -121.3125 287.375 C-120.77230225 286.04722534 -120.77230225 286.04722534 -120.22119141 284.69262695 C-117.81102433 278.81911505 -115.23443148 273.05442951 -112.5144043 267.31811523 C-111.00051438 264.00112703 -109.63343725 260.65770822 -108.296875 257.265625 C-105.06589957 249.11851752 -101.72646582 241.01827071 -98.35839844 232.92700195 C-97.36634065 230.54167928 -96.37847755 228.15464489 -95.390625 225.76757812 C-94.7476516 224.22124779 -94.10443136 222.67502007 -93.4609375 221.12890625 C-93.17229828 220.4297963 -92.88365906 219.73068634 -92.58627319 219.01039124 C-90.83871567 214.82755992 -88.93188368 210.76658846 -86.85975647 206.73429871 C-85.73452133 204.46447706 -84.88006407 202.14617855 -84.0625 199.75 C-81.07053813 191.3034615 -77.48135141 183.11627693 -73.9453125 174.88671875 C-66.94007813 158.58143186 -59.95858337 142.25673305 -53.546875 125.70703125 C-52.20948501 122.38857465 -50.69016626 119.16286896 -49.17578125 115.921875 C-46.04238287 109.17779606 -43.20906731 102.33676526 -40.4375 95.4375 C-35.4458066 83.07476287 -30.36357153 70.76889029 -25 58.5625 C-21.86233038 51.39381251 -18.87163229 44.22211252 -16.13671875 36.890625 C-14.46501759 32.63956364 -12.49412889 28.54054272 -10.546875 24.41015625 C-8.31067054 19.48034188 -6.35332198 14.45552632 -4.39453125 9.41015625 C-3.07429679 6.18168375 -1.60258579 3.09644158 0 0 Z M67 163 C71.13005946 169.49009343 75.08351033 175.65495503 79.75 181.6875 C86.51121132 190.55902879 92.81359407 199.72039111 99 209 C103.19057566 208.48107357 105.27228248 206.15834717 108.25 203.3125 C112.2069234 199.5998967 116.17153908 196.23445001 120.63671875 193.15625 C121.08660156 192.7746875 121.53648437 192.393125 122 192 C122 191.34 122 190.68 122 190 C122.53109375 189.77699219 123.0621875 189.55398437 123.609375 189.32421875 C126.82451276 187.5432846 129.48414311 185.20623071 132.25 182.8125 C132.8270166 182.31854736 133.4040332 181.82459473 133.99853516 181.31567383 C137.75812551 178.09143819 141.49828545 174.84459902 145.2109375 171.56640625 C147.12045082 169.89453978 149.05919849 168.26037657 151 166.625 C151.99 165.75875 152.98 164.8925 154 164 C154 163.67 154 163.34 154 163 C125.29 163 96.58 163 67 163 Z M223 163 C229.31243253 170.89054067 237.16080385 176.76824191 244.99511719 183.08422852 C249.74909675 186.93393056 254.32020859 190.93355731 258.82421875 195.07421875 C261.51097459 197.45226297 264.34759212 199.55301423 267.25390625 201.65234375 C269 203 269 203 271.75 205.8125 C274.05837183 208.05675039 274.97329097 208.40864718 278 209 C278.35602295 208.48840332 278.7120459 207.97680664 279.07885742 207.44970703 C286.17499841 197.26113294 293.30148544 187.10116852 300.6472168 177.09033203 C301.14648682 176.40567871 301.64575684 175.72102539 302.16015625 175.015625 C302.80416382 174.13825684 302.80416382 174.13825684 303.46118164 173.24316406 C305.75266331 169.90282873 307.8530968 166.43504513 310 163 C281.29 163 252.58 163 223 163 Z M37 165 C34.32212282 168.65860623 31.65709718 172.32627434 29 176 C28.31035156 176.95261719 27.62070313 177.90523437 26.91015625 178.88671875 C26.27980469 179.76972656 25.64945313 180.65273437 25 181.5625 C24.13375 182.77099609 24.13375 182.77099609 23.25 184.00390625 C21.82308528 185.88998008 21.82308528 185.88998008 22 188 C21.34 188 20.68 188 20 188 C18.58732599 189.90341377 18.58732599 189.90341377 17.125 192.4375 C13.96557906 197.55181265 10.60966054 202.47692688 7.125 207.375 C6.61243652 208.09751953 6.09987305 208.82003906 5.57177734 209.56445312 C4.54542132 211.0106085 3.51857148 212.45641354 2.49121094 213.90185547 C0.23608619 217.07483223 -2.01443468 220.25070754 -4.25 223.4375 C-4.97703125 224.46746094 -5.7040625 225.49742187 -6.453125 226.55859375 C-8.17840428 228.79987153 -8.17840428 228.79987153 -8 231 C23.00540054 231.90246405 53.9824196 232.12596955 85 232 C84.36916504 230.89519287 83.73833008 229.79038574 83.08837891 228.65209961 C82.73353424 228.0306456 82.37868958 227.40919159 82.01309204 226.76890564 C80.82082593 224.68715377 79.61576766 222.61577035 78.375 220.5625 C77.97023438 219.88316406 77.56546875 219.20382813 77.1484375 218.50390625 C76.76945312 218.00761719 76.39046875 217.51132813 76 217 C75.34 217 74.68 217 74 217 C73.773125 216.49210937 73.54625 215.98421875 73.3125 215.4609375 C71.46641338 211.99952509 69.23630823 208.8441321 67 205.625 C66.26414673 204.56043579 66.26414673 204.56043579 65.51342773 203.47436523 C62.00645021 198.41449919 58.45498675 193.38760993 54.859375 188.39038086 C52.47265388 185.07217553 50.11318505 181.73708889 47.77734375 178.3828125 C46.96027954 177.21286743 46.96027954 177.21286743 46.12670898 176.01928711 C45.05892195 174.48868018 43.99451477 172.95570868 42.93383789 171.42016602 C42.45035889 170.72850342 41.96687988 170.03684082 41.46875 169.32421875 C41.04013672 168.70635498 40.61152344 168.08849121 40.16992188 167.4519043 C39.04412637 165.84878728 39.04412637 165.84878728 37 165 Z M339 165 C335.999467 168.07449747 335.999467 168.07449747 335 172 C334.34 172 333.68 172 333 172 C331.80457522 173.68125012 330.69287157 175.42248083 329.625 177.1875 C327.29271504 181.02498208 324.83561847 184.51992278 322 188 C320.90233899 189.53149846 319.81901544 191.07337079 318.75 192.625 C316.20985936 196.28323673 313.6279925 199.90433584 311 203.5 C308.32082715 207.17862991 305.64363156 210.85821787 303 214.5625 C302.4225 215.36816406 301.845 216.17382812 301.25 217.00390625 C299.82308528 218.88998008 299.82308528 218.88998008 300 221 C299.34 221 298.68 221 298 221 C296.44303587 222.94901196 296.44303587 222.94901196 294.9375 225.375 C294.14666016 226.59316406 294.14666016 226.59316406 293.33984375 227.8359375 C291.993532 229.93743798 291.993532 229.93743798 291 232 C322.34651725 232.15852514 353.66194491 231.72243763 385 231 C384.65864014 230.38584229 384.31728027 229.77168457 383.96557617 229.13891602 C383.292323 227.92739868 383.292323 227.92739868 382.60546875 226.69140625 C381.93874146 225.49173218 381.93874146 225.49173218 381.25854492 224.26782227 C380.27345572 222.49275076 379.29223277 220.71553354 378.3125 218.9375 C377.879375 218.298125 377.44625 217.65875 377 217 C376.34 217 375.68 217 375 217 C374.60167969 216.16662109 374.60167969 216.16662109 374.1953125 215.31640625 C370.3447018 207.85427506 365.35506868 201.03563117 360.37890625 194.296875 C356.67847966 189.22441661 353.18484866 184.00471987 349.65576172 178.8125 C344.92194687 171.83975471 344.92194687 171.83975471 340 165 C339.67 165 339.34 165 339 165 Z M182.75 170.6875 C179.91759442 173.30666392 177.13060484 175.70941159 173.9375 177.875 C172.968125 178.57625 171.99875 179.2775 171 180 C171 180.66 171 181.32 171 182 C170.40977051 182.27255615 169.81954102 182.5451123 169.21142578 182.82592773 C167.05637188 183.9700715 165.4441707 185.17942386 163.6171875 186.78515625 C162.70259766 187.58083008 162.70259766 187.58083008 161.76953125 188.39257812 C161.14433594 188.94365234 160.51914062 189.49472656 159.875 190.0625 C158.62398515 191.1593674 157.37144995 192.25450394 156.1171875 193.34765625 C155.56659668 193.83242432 155.01600586 194.31719238 154.44873047 194.81665039 C153 196 153 196 151 197 C151 197.66 151 198.32 151 199 C150.278125 199.226875 149.55625 199.45375 148.8125 199.6875 C145.88769869 200.85732895 145.88769869 200.85732895 143.76171875 203.23828125 C140.16437569 206.83562431 136.20998259 209.81417995 132.171875 212.89453125 C128.51297071 215.71825086 125.23162206 218.68059194 122 222 C120.74347467 223.12042201 119.47457995 224.22731495 118.1875 225.3125 C117.58292969 225.82425781 116.97835937 226.33601563 116.35546875 226.86328125 C115.90816406 227.23839844 115.46085938 227.61351562 115 228 C115.33 228.66 115.66 229.32 116 230 C163.85 230 211.7 230 261 230 C261 229.01 261 228.02 261 227 C258.87869747 224.95968196 258.87869747 224.95968196 256.1875 223 C251.17769608 219.18300654 251.17769608 219.18300654 249.30078125 217.25 C248.06032499 215.76903589 248.06032499 215.76903589 246 216 C245.67 215.01 245.34 214.02 245 213 C242.88813578 211.20829322 240.77551116 209.53203016 238.5625 207.875 C234.27589789 204.59166819 230.09644133 201.29094584 226.125 197.625 C221.34381826 193.22725182 216.32914469 189.16856334 211.26342773 185.10717773 C205.61878158 180.56067547 200.15377294 175.83049129 194.78442383 170.96191406 C189.6096486 166.36369759 187.76840319 165.9410732 182.75 170.6875 Z M-13 256 C-11.97450832 259.07647504 -10.86330003 260.23655213 -8.58203125 262.42578125 C-5.20976119 265.78139812 -2.13856753 269.42750173 1 273 C1.66 273.74378906 2.32 274.48757813 3 275.25390625 C3.61875 275.95386719 4.2375 276.65382813 4.875 277.375 C5.42929688 278.00148438 5.98359375 278.62796875 6.5546875 279.2734375 C8 281 8 281 10 284 C10.66 284 11.32 284 12 284 C12.268125 284.5775 12.53625 285.155 12.8125 285.75 C14.02929189 288.05550043 15.30333879 290.02056192 17 292 C17.66 292 18.32 292 19 292 C19.26804443 292.58571777 19.53608887 293.17143555 19.81225586 293.77490234 C21.01285229 296.02407724 22.31524075 297.69868833 24.00390625 299.6015625 C24.57947266 300.25640625 25.15503906 300.91125 25.74804688 301.5859375 C26.64620117 302.59527344 26.64620117 302.59527344 27.5625 303.625 C28.75314311 304.96972634 29.94203237 306.31600822 31.12890625 307.6640625 C31.65556885 308.25654785 32.18223145 308.8490332 32.72485352 309.45947266 C34 311 34 311 35 313 C35.66 313 36.32 313 37 313 C37.268125 313.5775 37.53625 314.155 37.8125 314.75 C39.02929189 317.05550043 40.30333879 319.02056192 42 321 C42.66 321 43.32 321 44 321 C44.2371875 321.55558594 44.474375 322.11117187 44.71875 322.68359375 C46.3007374 325.54371121 48.27662715 327.66948669 50.5 330.0625 C52.90536731 332.65920335 55.03404204 335.05106306 57 338 C57.66 338 58.32 338 59 338 C59.33 339.32 59.66 340.64 60 342 C60.66 342 61.32 342 62 342 C62 342.66 62 343.32 62 344 C62.66 344 63.32 344 64 344 C64.23203125 344.55171875 64.4640625 345.1034375 64.703125 345.671875 C66.34821135 348.62510231 68.43162951 350.79112221 70.75 353.25 C74.42725467 357.20889412 77.77813779 361.18979871 80.84375 365.63671875 C81.2253125 366.08660156 81.606875 366.53648437 82 367 C82.66 367 83.32 367 84 367 C84.4021875 367.86625 84.4021875 367.86625 84.8125 368.75 C86.02929189 371.05550043 87.30333879 373.02056192 89 375 C89.66 375 90.32 375 91 375 C91.37125 375.8353125 91.37125 375.8353125 91.75 376.6875 C93.22924818 379.42410913 94.93467439 381.67650869 97 384 C97.66 384 98.32 384 99 384 C100 386 101 388 102 390 C102.66 390 103.32 390 104 390 C104.25136719 390.55816406 104.50273437 391.11632812 104.76171875 391.69140625 C108.27277247 398.23725088 113.71912185 403.84792375 119 409 C127.68785047 418.37570093 127.68785047 418.37570093 129 421 C129.66 421 130.32 421 131 421 C131.061875 421.556875 131.12375 422.11375 131.1875 422.6875 C132.3380544 425.96215482 134.52171546 427.58063971 137 430 C138.84520756 431.9698121 140.6790527 433.94567949 142.5 435.9375 C142.96019531 436.43701172 143.42039062 436.93652344 143.89453125 437.45117188 C147.03861211 440.88309112 150.04302091 444.40555622 153 448 C154.37622678 445.83221341 154.37622678 445.83221341 152.91796875 442.66796875 C152.34729471 441.17211884 151.76984632 439.67884455 151.1875 438.1875 C147.94921441 429.65552512 144.90288626 421.06804338 141.9375 412.4375 C141.50832275 411.1901709 141.07914551 409.9428418 140.63696289 408.65771484 C138.0087 400.99711191 135.4363855 393.31985 132.90600586 385.62646484 C131.71939055 382.04913733 130.4545388 378.53920249 129 375.0625 C126.69866645 369.54888836 125.01043536 363.83848665 123.28125 358.12524414 C121.75897124 353.1607746 119.98526168 348.37357398 118.02197266 343.56738281 C116.25951399 339.1397633 114.73334426 334.63183797 113.1875 330.125 C112.48061782 328.07937556 111.77358404 326.03380351 111.06640625 323.98828125 C110.71723145 322.97588379 110.36805664 321.96348633 110.00830078 320.92041016 C104.50269994 304.97416383 98.85861785 289.0761624 93.14697266 273.20263672 C92.38211315 271.06695622 91.62657025 268.92791624 90.88037109 266.78564453 C90.53184082 265.7954834 90.18331055 264.80532227 89.82421875 263.78515625 C89.51959717 262.90867432 89.21497559 262.03219238 88.90112305 261.12915039 C88.08873591 258.83834672 88.08873591 258.83834672 86 257 C83.21920785 256.667263 83.21920785 256.667263 79.91503906 256.68115234 C78.63058899 256.66128265 77.34613892 256.64141296 76.02276611 256.62094116 C74.60372113 256.6090262 73.18467399 256.59736581 71.765625 256.5859375 C70.29334485 256.56717954 68.82107492 256.54760288 67.34881592 256.5272522 C63.44112591 256.47569673 59.53339862 256.4363094 55.62554932 256.39910889 C52.53250328 256.3677183 49.43959663 256.32790825 46.3466568 256.28753281 C26.56403881 256.02969032 6.7841988 255.94595996 -13 256 Z M362.54272461 256.09179688 C361.75137115 256.10155045 360.9600177 256.11130402 360.14468384 256.12135315 C357.56389694 256.15329129 354.98312064 256.18601332 352.40234375 256.21875 C350.59916748 256.24121896 348.79599059 256.26363843 346.99281311 256.28601074 C342.27303451 256.34470154 337.55326453 256.40405989 332.83349609 256.46356201 C328.00684101 256.52429193 323.18017799 256.58438394 318.35351562 256.64453125 C308.90233592 256.76240006 299.45116521 256.8809748 290 257 C287.77474198 261.89853608 285.62280602 266.765461 283.88671875 271.86328125 C283.52964844 272.90427979 283.17257812 273.94527832 282.8046875 275.01782227 C282.43601562 276.10506592 282.06734375 277.19230957 281.6875 278.3125 C280.88957389 280.64071103 280.09139451 282.96883527 279.29296875 285.296875 C278.90286621 286.43833984 278.51276367 287.57980469 278.11083984 288.75585938 C276.59009293 293.19710882 275.05018306 297.63144979 273.5 302.0625 C273.22438232 302.85124512 272.94876465 303.63999023 272.66479492 304.45263672 C270.69991445 310.05516326 268.68749224 315.63970892 266.66503906 321.22167969 C263.58635158 329.71968293 260.55611203 338.22035702 257.75 346.8125 C253.9818589 358.34746116 249.79354002 369.73189431 245.61816406 381.12426758 C242.83895959 388.73309099 240.24062674 396.33808639 237.91821289 404.10205078 C236.79345455 407.65187305 235.43041506 411.06351196 234.00878906 414.50292969 C232.13147166 419.14988091 230.51750054 423.89110112 228.875 428.625 C228.52824219 429.60984375 228.18148438 430.5946875 227.82421875 431.609375 C225.93723398 437.03174503 224.28918353 442.40467765 223 448 C224.15364657 446.84635343 225.30661165 445.69202078 226.45703125 444.53515625 C227.4857566 443.51163964 228.5249288 442.49851715 229.57421875 441.49609375 C233.99110307 437.22335018 237.82859946 432.6087061 241.6796875 427.82421875 C243.88328406 425.14206334 246.16043825 422.56373579 248.5 420 C252.47083675 415.64108845 256.21375996 411.13088431 259.92578125 406.55078125 C266.69825778 398.22229317 266.69825778 398.22229317 269.6640625 395.4375 C271.22691881 394.08290188 271.22691881 394.08290188 271 392 C271.66 392 272.32 392 273 392 C274.41261529 390.37898212 274.41261529 390.37898212 275.8125 388.3125 C278.30725485 384.87394633 280.95441921 381.97306696 284 379 C286.70380871 376.03268451 289.35119804 373.01641136 292 370 C292.63679688 369.27941406 293.27359375 368.55882812 293.9296875 367.81640625 C299.98205321 362.03085664 299.98205321 362.03085664 303 355 C303.57621094 354.77183594 304.15242188 354.54367187 304.74609375 354.30859375 C307.59728874 352.65322058 309.06863765 350.678724 311.0625 348.0625 C314.79348049 343.20005133 314.79348049 343.20005133 316.74609375 341.30859375 C318.23061952 340.0613846 318.23061952 340.0613846 318 338 C318.66 338 319.32 338 320 338 C321.51984883 336.32464541 322.96706453 334.58294378 324.375 332.8125 C325.14585937 331.84957031 325.91671875 330.88664062 326.7109375 329.89453125 C328.18993425 328.02433229 329.66787382 326.15329658 331.14453125 324.28125 C333.26989442 321.66817192 335.61806652 319.38193348 338 317 C340.37481147 314.36859971 342.69027703 311.68853858 345 309 C345.51433594 308.41347656 346.02867187 307.82695312 346.55859375 307.22265625 C349.18327023 304.5032302 349.18327023 304.5032302 350 301 C350.99 300.67 351.98 300.34 353 300 C354.26796755 298.53733856 354.26796755 298.53733856 355.375 296.75 C357.60887741 293.44980044 360.18013125 290.81986875 363 288 C364.29519995 285.83379456 364.29519995 285.83379456 365 284 C365.66 284 366.32 284 367 284 C369.04456059 281.82735345 369.04456059 281.82735345 371.125 279.125 C371.84945312 278.22007812 372.57390625 277.31515625 373.3203125 276.3828125 C375.19205234 274.21344189 375.19205234 274.21344189 375 272 C375.99 271.67 376.98 271.34 378 271 C379.58130649 269.21856381 381.09489444 267.37621402 382.5625 265.5 C386.80063627 260.09968187 386.80063627 260.09968187 389 259 C389 258.34 389 257.68 389 257 C387.0509375 256.7525 387.0509375 256.7525 385.0625 256.5 C384.33160156 256.4071875 383.60070312 256.314375 382.84765625 256.21875 C376.10980878 255.70116501 369.29661146 256.00469443 362.54272461 256.09179688 Z M114 258 C119.58920781 275.64767598 119.58920781 275.64767598 126 293 C126.9755739 295.83253502 127.92787798 298.66179064 128.84765625 301.51171875 C131.60648755 309.91746135 134.57154468 318.23603604 137.6088562 326.54455566 C141.81794114 338.06454817 145.94540897 349.59619976 149.75634766 361.25512695 C151.53817047 366.68562937 153.47945174 372.02293917 155.52563477 377.36010742 C159.543884 387.94275862 163.09683817 398.6986556 166.76708984 409.40576172 C171.27557463 422.54911084 175.82708615 435.66680214 180.69897461 448.68041992 C182.46422163 453.42880556 184.04807504 458.1749239 185.296875 463.08984375 C186.15387606 465.41802996 187.44104385 467.08556759 189 469 C194.20998091 455.09554935 199.11411538 441.09634734 203.94628906 427.05664062 C205.41198822 422.80489053 206.88977566 418.55746491 208.375 414.3125 C208.64497803 413.54059326 208.91495605 412.76868652 209.19311523 411.97338867 C211.00303836 406.81152708 212.83214278 401.65660398 214.66796875 396.50390625 C215.63297289 393.79432793 216.59776672 391.08467478 217.5625 388.375 C217.80201385 387.70261292 218.04152771 387.03022583 218.28829956 386.33746338 C221.3182201 377.82581507 224.31347469 369.30625268 227.07446289 360.70263672 C228.21048557 357.19940687 229.47194499 353.78560545 230.86328125 350.375 C233.40408502 344.10490394 235.56822696 337.71458431 237.75 331.3125 C238.19093758 330.02512305 238.63218588 328.73785248 239.07373047 327.45068359 C239.74342404 325.49842482 240.41298279 323.54612174 241.08163452 321.59350586 C243.07802005 315.76434545 245.09749975 309.9433975 247.125 304.125 C247.44404297 303.20847656 247.76308594 302.29195313 248.09179688 301.34765625 C249.77028086 296.52669616 251.4512287 291.70659834 253.1328125 286.88671875 C253.48714355 285.87013184 253.84147461 284.85354492 254.20654297 283.80615234 C254.87412847 281.89086609 255.54236067 279.97580504 256.21142578 278.06103516 C258.53534107 271.3921432 260.7661514 264.70154581 263 258 C213.83 258 164.66 258 114 258 Z " fill="#080808" transform="translate(132,32)"/>
<path d="M0 0 C0.66 0 1.32 0 2 0 C6.53090316 10.10739935 10.94101962 20.25627715 15 30.5625 C16.83520464 35.21935412 18.79448472 39.78772504 20.9375 44.3125 C23.72075348 50.22055505 26.06778237 56.24268247 28.39208984 62.34033203 C30.54398325 67.94142689 32.96274502 73.36514507 35.53125 78.7890625 C37.72251199 83.57953419 39.63352753 88.4721478 41.56640625 93.37109375 C44.49352297 100.7806072 47.55475027 108.09889603 50.9375 115.3125 C54.19967209 122.43601865 57.09017634 129.72544084 60 137 C83.1 137 106.2 137 130 137 C132.97 129.41 135.94 121.82 139 114 C142.1875 107 142.1875 107 143.60546875 104.03125 C145.70700674 99.46320104 147.50532911 94.78378873 149.3125 90.09375 C150.66382077 86.70495237 152.19293565 83.41593195 153.7421875 80.11328125 C157.82293228 71.34308269 161.41157975 62.37758359 165.04638672 53.41577148 C165.94762362 51.19669722 166.8526233 48.97918313 167.7578125 46.76171875 C168.02457794 46.10008224 168.29134338 45.43844574 168.56619263 44.75675964 C170.24306727 40.65088229 172.10642953 36.68760046 174.13598633 32.74377441 C175.25149267 30.49243107 176.07987885 28.19407716 176.875 25.8125 C179.79633391 17.53346278 183.35939148 9.46353062 188 2 C191.71729679 4.47819786 192.46100283 7.1094706 193.9375 11.125 C194.46217327 12.49841899 194.98949508 13.87082926 195.51953125 15.2421875 C195.77299316 15.89799805 196.02645508 16.55380859 196.28759766 17.22949219 C197.1213917 19.30169041 198.08032855 21.27627291 199.125 23.25 C200.65194581 26.1599582 201.78897254 29.08520024 202.875 32.1875 C204.70976397 37.38599791 206.95214396 42.30354853 209.296875 47.2890625 C213.9528452 57.31095579 218.07300352 67.59683075 222.125 77.875 C224.3864419 83.58361279 226.88621454 89.13320591 229.5 94.6875 C231.39462629 98.87146638 233.0725038 103.12993439 234.74560547 107.40527344 C236.78822704 112.58062723 239.08616577 117.6019021 241.5078125 122.609375 C243.57597751 127.30876566 245.24537053 132.17476897 247 137 C270.76 137.33 294.52 137.66 319 138 C319 138.33 319 138.66 319 139 C318.38229921 138.99734196 317.76459842 138.99468392 317.12817943 138.99194533 C280.52785417 138.83533914 243.92757842 138.71521468 207.32698678 138.64254269 C202.93348542 138.63378762 198.53998473 138.62472738 194.14648438 138.61547852 C192.83446998 138.61272426 192.83446998 138.61272426 191.49595024 138.60991435 C177.32850542 138.57944524 163.16125919 138.52424786 148.99393223 138.45993043 C134.45969615 138.39449702 119.92556416 138.35559434 105.39118683 138.34138054 C96.42072476 138.33176989 87.45082395 138.30140379 78.48053463 138.24458473 C72.33138038 138.20761642 66.18251678 138.19639159 60.03325944 138.20549036 C56.48386398 138.20997945 52.93545 138.20304292 49.38622856 138.16556168 C45.53876798 138.12522741 41.69258932 138.1390668 37.84494019 138.15821838 C36.72236938 138.13782849 35.59979858 138.1174386 34.44321048 138.09643084 C28.84451601 138.08454166 28.84451601 138.08454166 23.9987042 140.53434837 C22.47262381 142.28726125 21.21686313 144.02385725 20 146 C19.43901611 146.754021 18.87803223 147.50804199 18.30004883 148.28491211 C17.85685303 148.94241455 17.41365723 149.59991699 16.95703125 150.27734375 C16.44624023 151.02999512 15.93544922 151.78264648 15.40917969 152.55810547 C14.88227539 153.34330566 14.35537109 154.12850586 13.8125 154.9375 C12.66816179 156.6264329 11.52362733 158.31523283 10.37890625 160.00390625 C9.81187988 160.84324707 9.24485352 161.68258789 8.66064453 162.54736328 C6.20847144 166.16902322 3.7307931 169.7729096 1.25 173.375 C0.79560547 174.0354834 0.34121094 174.6959668 -0.12695312 175.37646484 C-5.61499019 183.35164208 -11.12537303 191.31110553 -16.66015625 199.25390625 C-23.19389267 208.6314974 -29.72131974 218.01314583 -36.1875 227.4375 C-36.9614209 228.56212646 -36.9614209 228.56212646 -37.75097656 229.70947266 C-39.18037253 231.79790037 -40.59475353 233.89525862 -42 236 C-42.47751709 236.70979004 -42.95503418 237.41958008 -43.44702148 238.15087891 C-44.12680054 239.19187744 -44.12680054 239.19187744 -44.8203125 240.25390625 C-45.42576904 241.17345093 -45.42576904 241.17345093 -46.04345703 242.11157227 C-47.8648617 245.7074286 -47.94209872 249.12920309 -47 253 C-45.40925325 256.05590823 -43.31132942 258.46039114 -41 261 C-40.31164062 261.77085937 -39.62328125 262.54171875 -38.9140625 263.3359375 C-37.39919984 265.02089001 -35.87675053 266.69904575 -34.34765625 268.37109375 C-32.01968205 270.97796003 -29.81526806 273.65185814 -27.625 276.375 C-23.94428153 280.92780507 -20.07351352 285.23417411 -16.08862305 289.5168457 C-12.28614986 293.62760957 -8.75736701 297.92266523 -5.24609375 302.28515625 C-2.9116941 305.10673495 -0.48009402 307.80590712 2 310.5 C5.27418423 314.05670244 8.40642433 317.67161811 11.4375 321.4375 C14.65943101 325.43223986 18.00655495 329.24554349 21.5 333 C25.78955113 337.61004336 29.80410672 342.37782956 33.75390625 347.28515625 C36.0883059 350.10673495 38.51990598 352.80590712 41 355.5 C44.27418423 359.05670244 47.40642433 362.67161811 50.4375 366.4375 C54.09571015 370.97316443 57.94742965 375.2570117 61.91381836 379.51928711 C65.68231895 383.59300401 69.17392005 387.85142511 72.65234375 392.17578125 C76.90579921 397.29266694 81.46014258 402.13768541 86 407 C85.01 407.33 84.02 407.66 83 408 C81.79567176 410.28669918 80.78474391 412.49059605 79.8125 414.875 C79.5136087 415.58272552 79.21471741 416.29045105 78.9067688 417.0196228 C77.92803482 419.34242959 76.96423963 421.6711438 76 424 C75.32531464 425.60681163 74.64936233 427.21309184 73.97216797 428.81884766 C72.94932269 431.24435788 71.92714738 433.67011805 70.90890503 436.0975647 C68.05787827 442.89167233 65.11383097 449.64025413 62.125 456.375 C57.66378302 466.46204812 53.29338627 476.58538116 48.96826172 486.73144531 C48.07695847 488.81969285 47.182167 490.90638644 46.28515625 492.9921875 C43.46014716 499.56231042 40.68328037 506.14808014 37.98046875 512.76953125 C37 515 37 515 36 516 C33.82194281 516.09429342 31.6407872 516.11742538 29.46069336 516.11352539 C28.77779739 516.11367142 28.09490143 516.11381744 27.39131165 516.1139679 C25.12412386 516.11326876 22.85701726 516.1054764 20.58984375 516.09765625 C19.02185613 516.09579207 17.45386793 516.09436817 15.88587952 516.09336853 C11.75123497 516.08954334 7.61662534 516.07971306 3.48199463 516.06866455 C-0.73400398 516.05845044 -4.95000822 516.05387091 -9.16601562 516.04882812 C-17.44402647 516.03809079 -25.7220089 516.02101436 -34 516 C-35.1026109 513.65062687 -36.20379294 511.30060087 -37.30419922 508.95019531 C-37.61181686 508.29511993 -37.91943451 507.64004456 -38.2363739 506.96511841 C-41.3575766 500.29294682 -44.25338965 493.53333154 -47.125 486.75 C-50.32045422 479.21962726 -53.5413687 471.71285128 -56.97851562 464.2890625 C-58.14179547 461.68224801 -59.09870833 459.01643622 -60.06640625 456.33203125 C-61.34575959 453.13632437 -62.83473493 450.04471733 -64.3125 446.9375 C-67.26339247 440.72484938 -69.88550239 434.44449528 -72.34765625 428.0234375 C-73.68926691 424.64489636 -75.2083816 421.36388091 -76.74609375 418.0703125 C-80.68849995 409.59720826 -84.28019104 400.98216191 -87.89550781 392.36572266 C-91.3032068 384.25241965 -94.79015128 376.20105636 -98.51269531 368.22558594 C-101.23554108 362.32042536 -103.79899675 356.34523714 -106.375 350.375 C-106.9472469 349.05158695 -107.51951274 347.7281821 -108.09179688 346.40478516 C-111.89266195 337.60663623 -115.66544628 328.7971334 -119.33984375 319.9453125 C-120.39314147 317.41422649 -121.49010238 314.9257708 -122.62890625 312.4296875 C-123.10199219 311.38039063 -123.57507813 310.33109375 -124.0625 309.25 C-124.66771484 307.95835937 -124.66771484 307.95835937 -125.28515625 306.640625 C-127.10753344 299.90878357 -123.85739124 293.51919503 -121.3125 287.375 C-120.77230225 286.04722534 -120.77230225 286.04722534 -120.22119141 284.69262695 C-117.81102433 278.81911505 -115.23443148 273.05442951 -112.5144043 267.31811523 C-111.00051438 264.00112703 -109.63343725 260.65770822 -108.296875 257.265625 C-105.06589957 249.11851752 -101.72646582 241.01827071 -98.35839844 232.92700195 C-97.36634065 230.54167928 -96.37847755 228.15464489 -95.390625 225.76757812 C-94.7476516 224.22124779 -94.10443136 222.67502007 -93.4609375 221.12890625 C-93.17229828 220.4297963 -92.88365906 219.73068634 -92.58627319 219.01039124 C-90.83871567 214.82755992 -88.93188368 210.76658846 -86.85975647 206.73429871 C-85.73452133 204.46447706 -84.88006407 202.14617855 -84.0625 199.75 C-81.07053813 191.3034615 -77.48135141 183.11627693 -73.9453125 174.88671875 C-66.94007813 158.58143186 -59.95858337 142.25673305 -53.546875 125.70703125 C-52.20948501 122.38857465 -50.69016626 119.16286896 -49.17578125 115.921875 C-46.04238287 109.17779606 -43.20906731 102.33676526 -40.4375 95.4375 C-35.4458066 83.07476287 -30.36357153 70.76889029 -25 58.5625 C-21.86233038 51.39381251 -18.87163229 44.22211252 -16.13671875 36.890625 C-14.46501759 32.63956364 -12.49412889 28.54054272 -10.546875 24.41015625 C-8.31067054 19.48034188 -6.35332198 14.45552632 -4.39453125 9.41015625 C-3.07429679 6.18168375 -1.60258579 3.09644158 0 0 Z " fill="#DA5554" transform="translate(132,32)"/>
<path d="M0 0 C0.66 0 1.32 0 2 0 C2.25652344 0.62261719 2.51304687 1.24523438 2.77734375 1.88671875 C8.66859378 16.10902943 14.65933546 30.27387486 21.25 44.1875 C23.68945171 49.42285299 25.87287177 54.76741033 28.09228516 60.09863281 C30.3921144 65.60620647 32.83522653 71.0262865 35.37109375 76.4296875 C37.49538603 81.08581014 39.49642869 85.79092454 41.5 90.5 C44.32453968 97.1337493 47.22062629 103.7154467 50.27734375 110.24609375 C54.23525749 118.79175641 57.94227867 127.45555362 61.72070312 136.08154297 C62.80577749 138.55692064 63.89389973 141.03090495 64.984375 143.50390625 C68.06227576 150.49436355 71.0581869 157.5136329 74 164.5625 C76.41773396 170.35553235 78.92625351 176.08240728 81.625 181.75 C84.543414 187.8992778 87.10307237 194.11548803 89.54296875 200.46484375 C90.82839935 203.5836499 92.28050672 206.54842564 93.81079102 209.55151367 C96.53823042 215.16709359 98.91674013 220.94991015 101.375 226.6875 C104.99088132 235.11928852 108.6648628 243.50833859 112.53564453 251.82739258 C115.00973543 257.18764787 117.37859467 262.59372136 119.75 268 C120.23082031 269.09183594 120.71164062 270.18367188 121.20703125 271.30859375 C128.36574709 287.60015598 128.36574709 287.60015598 126.33886719 294.12988281 C125.41696803 296.49564627 124.41564538 298.80909102 123.375 301.125 C123.04371094 301.89070313 122.71242188 302.65640625 122.37109375 303.4453125 C120.35823894 308.06348505 118.24623783 312.63392995 116.125 317.203125 C112.84246387 324.29402531 109.72084019 331.45133109 106.625 338.625 C106.05204793 339.94915726 105.47904933 341.2732944 104.90600586 342.59741211 C101.42083284 350.65968885 97.99053547 358.74366237 94.6081543 366.84960938 C92.36742421 372.19523986 89.95939472 377.44828117 87.49609375 382.6953125 C85.73174908 386.59253337 84.10994413 390.53709428 82.5 394.5 C80.52152682 399.36840185 78.49460934 404.18383021 76.25 408.9375 C73.1617352 415.50316751 70.36968409 422.185048 67.5625 428.875 C64.65180154 435.80659829 61.73700366 442.71399234 58.5 449.5 C54.94548714 456.97035918 51.76400445 464.58490972 48.56323242 472.21240234 C44.56399864 481.72073595 40.45519453 491.17844212 36.3125 500.625 C35.99650848 501.34565643 35.68051697 502.06631287 35.35494995 502.80880737 C33.57213763 506.87349382 31.78705989 510.93717886 30 515 C26.57043004 514.35464699 23.66653509 513.53984472 20.5 512.0625 C19.32244141 511.52689453 19.32244141 511.52689453 18.12109375 510.98046875 C17.42113281 510.65691406 16.72117187 510.33335937 16 510 C7.82652668 506.2276277 -0.44078359 505.82048894 -9.3125 505.8125 C-10.62069702 505.8112915 -10.62069702 505.8112915 -11.95532227 505.81005859 C-16.10990085 505.84609831 -19.94038251 506.03482778 -24 507 C-26.88725126 507.37016042 -29.02852335 507.28756226 -32 507 C-34.98909277 502.97122279 -36.35126834 498.4245706 -37.9375 493.71875 C-38.90208291 491.00832831 -38.90208291 491.00832831 -40.375 488.78125 C-42.25669282 485.56066036 -43.54980846 482.27962045 -44.90234375 478.80957031 C-46.85929503 473.80054111 -48.93837441 468.84164346 -51 463.875 C-51.42539062 462.84246094 -51.85078125 461.80992187 -52.2890625 460.74609375 C-54.37559122 455.72178378 -56.5541795 450.81737315 -59.04052734 445.97998047 C-60.5051578 442.95754969 -61.69114623 439.83498577 -62.91503906 436.70898438 C-64.93500318 431.6654376 -67.17149261 426.71539883 -69.375 421.75 C-73.30617384 412.85651401 -77.20449239 403.95227322 -81 395 C-80.63390625 394.58492188 -80.2678125 394.16984375 -79.890625 393.7421875 C-75.93050438 389.23519308 -72.02033405 384.68789484 -68.125 380.125 C-64.57556281 375.96828447 -60.99327495 371.85426164 -57.3125 367.8125 C-54.30185521 364.4991692 -51.43434822 361.11058071 -48.625 357.625 C-44.94428153 353.07219493 -41.07351352 348.76582589 -37.08862305 344.4831543 C-33.28614986 340.37239043 -29.75736701 336.07733477 -26.24609375 331.71484375 C-23.11832821 327.93432714 -19.78726117 324.35519125 -16.46484375 320.74609375 C-14.07292703 318.08124834 -11.80745116 315.35168175 -9.5625 312.5625 C-5.90493736 308.02763839 -2.05382973 303.74463817 1.91162109 299.48291016 C5.71398807 295.37220724 9.24270592 291.07724416 12.75390625 286.71484375 C15.88284821 282.93290521 19.21517445 279.3524413 22.5390625 275.7421875 C24.91039895 273.09984117 27.15252997 270.39305833 29.375 267.625 C33.33948307 262.6977139 37.55796598 258.06963795 41.92724609 253.50244141 C47.53833062 247.57613736 47.53833062 247.57613736 49.6875 239.9375 C49.41670767 233.79954047 45.93319147 229.67649375 42.38232422 224.88330078 C40.26895575 222.00401354 38.23557059 219.06994343 36.19238281 216.140625 C35.00567913 214.43948495 33.81614634 212.74031553 32.62402344 211.04296875 C28.23589642 204.79468257 23.9151758 198.50335691 19.625 192.1875 C13.7636743 183.5601726 7.83184541 174.98469915 1.86450195 166.43041992 C-3.04912429 159.3816953 -7.91826912 152.30388232 -12.75244141 145.20043945 C-14.16315235 143.13004521 -15.58049176 141.0643691 -17 139 C-17.45068848 138.33613281 -17.90137695 137.67226562 -18.36572266 136.98828125 C-20.4126305 134.02816107 -21.97227589 132.01848274 -25 130 C-27.46384903 129.76034953 -29.82540576 129.62758 -32.29296875 129.5859375 C-32.99899734 129.56657135 -33.70502594 129.5472052 -34.43244934 129.5272522 C-36.68401061 129.46754776 -38.93562328 129.4211086 -41.1875 129.375 C-42.71551689 129.33681171 -44.24351245 129.29775948 -45.77148438 129.2578125 C-49.51414935 129.16185404 -53.2569151 129.07778989 -57 129 C-54.3765812 122.0330284 -51.73509865 115.14422575 -48.5 108.4375 C-45.90802662 103.00101997 -43.51782819 97.51775723 -41.23828125 91.94140625 C-39.94099566 88.85984141 -38.54625805 85.83876714 -37.125 82.8125 C-34.75510605 77.74457293 -32.59423215 72.62277972 -30.5 67.4375 C-28.08665677 61.47020181 -25.47356134 55.6979328 -22.45703125 50.00390625 C-20.85270659 46.69633074 -19.51379799 43.33354334 -18.16674805 39.91479492 C-16.12548574 34.81526978 -13.9548453 29.77065644 -11.79101562 24.72216797 C-10.99866502 22.87188258 -10.21020957 21.01996815 -9.421875 19.16796875 C-2.1261224 2.1261224 -2.1261224 2.1261224 0 0 Z " fill="#1174E0" transform="translate(507,41)"/>
<path d="M0 0 C2.59384179 -0.01647704 5.18763976 -0.04365599 7.78125 -0.08203125 C30.36845168 -0.41366587 51.06994705 0.59534319 68.29516602 17.03759766 C70.95215206 19.7328826 72.53518894 21.56491338 73.10766602 25.35009766 C73.76766602 25.35009766 74.42766602 25.35009766 75.10766602 25.35009766 C84.07329762 44.27373993 85.96347049 63.80527576 79.42016602 83.91259766 C77.24266037 89.61519735 74.14864755 94.76169251 70.10766602 99.35009766 C69.44766602 99.35009766 68.78766602 99.35009766 68.10766602 99.35009766 C67.90141602 99.90697266 67.69516602 100.46384766 67.48266602 101.03759766 C62.39849417 109.5882503 51.18257277 113.68674217 42.10766602 116.35009766 C32.44807653 118.25415499 22.92656302 118.63754976 13.10766602 118.53759766 C11.75285005 118.53003675 10.39803224 118.52279839 9.04321289 118.51586914 C-4.62394866 118.42090741 -18.35226761 118.31628448 -31.89233398 116.35009766 C-31.91566384 101.50361816 -31.93331359 86.65714109 -31.94414616 71.81064701 C-31.94930893 64.91762238 -31.95635127 58.02460913 -31.96777344 51.1315918 C-31.97878099 44.48563601 -31.98461021 37.83968897 -31.98721123 31.19372368 C-31.989066 28.65186819 -31.99268759 26.11001339 -31.99806404 23.56816292 C-32.00527066 20.02158304 -32.00632509 16.47505276 -32.00585938 12.9284668 C-32.00945465 11.86607788 -32.01304993 10.80368896 -32.01675415 9.70910645 C-32.01537949 8.74851822 -32.01400482 7.78792999 -32.0125885 6.79823303 C-32.01351029 5.95847962 -32.01443209 5.11872622 -32.01538181 4.25352573 C-31.89233398 2.35009766 -31.89233398 2.35009766 -30.89233398 1.35009766 C-20.81038294 -0.62786657 -10.22526295 0.04743712 0 0 Z M11.10766602 37.35009766 C11.10766602 51.87009766 11.10766602 66.39009766 11.10766602 81.35009766 C22.07448444 81.84478059 22.07448444 81.84478059 30.79516602 76.87353516 C35.67301059 71.73772765 36.85524387 66.8209022 37.35766602 59.91259766 C36.86393372 52.87691249 35.83470963 46.84368889 31.10766602 41.35009766 C24.26658716 35.81901263 21.09630862 37.35009766 11.10766602 37.35009766 Z " fill="#E15252" transform="translate(242.892333984375,551.64990234375)"/>
<path d="M0 0 C0.7207108 -0.00523668 1.4414216 -0.01047336 2.18397212 -0.01586872 C4.59355013 -0.03084347 7.00291531 -0.03157331 9.41253662 -0.03224182 C11.14249529 -0.03986508 12.87245058 -0.04829286 14.60240173 -0.0574646 C19.29884771 -0.07940169 23.99522858 -0.08820759 28.69172001 -0.09329104 C31.62776777 -0.09693593 34.56379851 -0.10317672 37.49983978 -0.11029243 C47.74825285 -0.13478541 57.99661532 -0.14783824 68.24505615 -0.15138245 C77.78871501 -0.15501629 87.33205199 -0.18490127 96.8756125 -0.22678703 C105.07622191 -0.26151323 113.27672479 -0.2769313 121.47740722 -0.27762848 C126.37216031 -0.27842058 131.26658557 -0.28712826 136.16126251 -0.31562614 C140.76773678 -0.3418463 145.37361235 -0.34399005 149.98012733 -0.3279705 C151.66632457 -0.32615908 153.35255654 -0.33281906 155.03867912 -0.34878922 C172.58005474 -0.50474051 172.58005474 -0.50474051 178.73968506 5.27415466 C179.96159744 7.44368839 179.96159744 7.44368839 180.73968506 9.27415466 C181.39968506 9.27415466 182.05968506 9.27415466 182.73968506 9.27415466 C186.49770248 14.44142861 188.31429175 20.56567151 188.11468506 26.96556091 C186.88913965 34.51032483 183.77238739 41.37898009 177.68109131 46.09056091 C172.38485891 49.31945109 168.58671165 50.65097616 162.32115173 50.67529297 C161.59550296 50.68208964 160.86985418 50.68888631 160.12221605 50.69588894 C157.70183354 50.71480971 155.28195929 50.7124275 152.86151123 50.70994568 C151.12155001 50.71892646 149.38159476 50.72913544 147.64164734 50.74047852 C142.92250853 50.76695094 138.20353297 50.77401083 133.48432708 50.77592587 C130.53369121 50.77806016 127.58309668 50.78446838 124.63247108 50.79241753 C114.33216345 50.82016242 104.03197218 50.83242419 93.73162842 50.83006287 C84.14073013 50.82826103 74.55033834 50.85990979 64.9595682 50.90729386 C56.71646316 50.94656365 48.47352336 50.96261274 40.23032552 50.96069664 C35.31094855 50.95993291 30.39202179 50.96841777 25.47273827 51.00023079 C20.84399356 51.02934835 16.21612713 51.02946255 11.58735085 51.00768089 C9.89309018 51.00455239 8.19877413 51.01157882 6.50460815 51.02976227 C-3.94515271 51.13461367 -10.97928291 50.32422588 -18.7900362 42.80068302 C-24.48404319 36.60405815 -25.9121159 30.52168649 -25.66656494 22.33665466 C-24.59541894 14.26186172 -20.43347968 8.77422831 -14.32281494 3.64915466 C-9.61114766 0.50804314 -5.61883736 0.02027249 0 0 Z " fill="#FFE57D" transform="translate(239.26031494140625,679.7258453369141)"/>
<path d="M0 0 C1.32837891 0.00773438 1.32837891 0.00773438 2.68359375 0.015625 C14.93497365 0.52534066 27.41973039 6.54867919 37 14 C39 17 39 17 38.83178711 19.84521484 C37.92649027 23.2788062 36.6702224 25.53745772 34.69140625 28.4765625 C34.02689453 29.476875 33.36238281 30.4771875 32.67773438 31.5078125 C31.97970703 32.53648437 31.28167969 33.56515625 30.5625 34.625 C29.18708774 36.67854031 27.81332033 38.73318351 26.44140625 40.7890625 C25.82982666 41.69350098 25.21824707 42.59793945 24.58813477 43.52978516 C23.2291258 45.6436134 22.0652263 47.72773811 21 50 C17.71781136 48.87174765 15.12900976 47.41419853 12.3125 45.4375 C6.33813111 41.64175435 0.10792613 41.43782959 -6.75 42.625 C-11.2644461 43.82352551 -13.8126964 45.57947906 -17 49 C-20.40925849 55.81851697 -19.23906772 63.72047713 -18 71 C-17.34 71 -16.68 71 -16 71 C-15.608125 71.598125 -15.21625 72.19625 -14.8125 72.8125 C-11.87673022 76.35567042 -8.32271359 77.64232796 -3.89453125 78.32421875 C3.42896888 78.70011522 9.75363159 76.04662356 15.875 72.1875 C18 71 18 71 19.95532227 71.17749023 C22.64706443 72.26029374 23.3411429 73.50845395 24.83984375 75.97265625 C25.34580078 76.79056641 25.85175781 77.60847656 26.37304688 78.45117188 C26.88931641 79.31291016 27.40558594 80.17464844 27.9375 81.0625 C28.70610352 82.31450195 28.70610352 82.31450195 29.49023438 83.59179688 C30.5101803 85.25455497 31.52248242 86.92202748 32.52685547 88.59423828 C33.4848185 90.15866779 34.47226888 91.70554529 35.49267578 93.22998047 C37.44595869 96.15887281 38.87872822 98.32647517 39.5078125 101.8203125 C38.67518624 105.39420058 36.58647604 106.38938937 33.66015625 108.38671875 C16.72520513 118.65710761 -1.63162566 123.40093044 -21.26708984 118.7668457 C-31.10834115 116.11824044 -44.9040877 110.98001623 -50.3203125 101.75 C-50.54460937 101.1725 -50.76890625 100.595 -51 100 C-51.66 100 -52.32 100 -53 100 C-53.33 98.68 -53.66 97.36 -54 96 C-54.66 96 -55.32 96 -56 96 C-66.2306813 81.87426413 -68.7071357 64.98250425 -66.25 48 C-64.60423589 39.21139575 -61.43137767 32.28510307 -56.4375 24.9375 C-56.04941162 24.36459229 -55.66132324 23.79168457 -55.26147461 23.20141602 C-53.26539567 20.3805817 -52.35974227 19.11991409 -49 18 C-48.69707031 17.38253906 -48.39414062 16.76507812 -48.08203125 16.12890625 C-46.71734351 13.44387081 -45.2197793 12.53347435 -42.6875 10.9375 C-41.92824219 10.45152344 -41.16898437 9.96554687 -40.38671875 9.46484375 C-39.59910156 8.98144531 -38.81148438 8.49804688 -38 8 C-37.19691406 7.48824219 -36.39382813 6.97648438 -35.56640625 6.44921875 C-24.42234489 0.1563013 -12.45438839 -0.32140357 0 0 Z " fill="#E15353" transform="translate(503,551)"/>
<path d="M0 0 C3.71729679 2.47819786 4.46100283 5.1094706 5.9375 9.125 C6.46217327 10.49841899 6.98949508 11.87082926 7.51953125 13.2421875 C7.89972412 14.22590332 7.89972412 14.22590332 8.28759766 15.22949219 C9.1213917 17.30169041 10.08032855 19.27627291 11.125 21.25 C12.65194581 24.1599582 13.78897254 27.08520024 14.875 30.1875 C16.70976397 35.38599791 18.95214396 40.30354853 21.296875 45.2890625 C25.9528452 55.31095579 30.07300352 65.59683075 34.125 75.875 C36.3864419 81.58361279 38.88621454 87.13320591 41.5 92.6875 C43.39489767 96.87206568 45.07392738 101.13084304 46.74560547 105.4074707 C48.77620272 110.5570069 51.07436948 115.54172071 53.5078125 120.51171875 C55.66219725 125.54801608 57.26778568 130.80335705 59 136 C20.39 136 -18.22 136 -58 136 C-53.53982301 122.61946903 -53.53982301 122.61946903 -51.125 117.6875 C-48.90541431 113.01967783 -46.88116139 108.31254549 -45 103.5 C-43.14335398 98.76041209 -41.16801726 94.10703667 -39 89.5 C-36.70559468 84.61115174 -34.64465637 79.67642835 -32.67407227 74.64941406 C-29.89513983 67.62691728 -26.91339813 60.69062101 -23.9375 53.75 C-23.4307373 52.56591553 -22.92397461 51.38183105 -22.40185547 50.16186523 C-19.70511348 43.88541997 -16.95442356 37.64234722 -14.07421875 31.44775391 C-12.9452264 28.87519087 -11.98755689 26.27710097 -11.0625 23.625 C-8.15965705 15.41207849 -4.60383404 7.4043859 0 0 Z " fill="#F9DF7D" transform="translate(320,34)"/>
<path d="M0 0 C1.17044357 0.00303635 1.17044357 0.00303635 2.36453247 0.00613403 C3.59129196 0.00350555 3.59129196 0.00350555 4.84283447 0.00082397 C7.55972383 -0.00359528 10.27654865 -0.0006563 12.99343872 0.00271606 C14.87291476 0.00204305 16.75239071 0.00107304 18.63186646 -0.00018311 C22.57629218 -0.00166018 26.5206953 0.00049478 30.46511841 0.00515747 C35.53306375 0.01085476 40.60095614 0.00757581 45.66889954 0.00158501 C49.55150759 -0.00202035 53.434103 -0.00088214 57.31671143 0.0017128 C59.18591315 0.00238214 61.055116 0.00155341 62.92431641 -0.00076675 C65.53202376 -0.00329287 68.13964413 0.00054672 70.74734497 0.00613403 C71.52764069 0.0041098 72.3079364 0.00208557 73.11187744 0 C78.44167619 0.02126603 78.44167619 0.02126603 79.55593872 1.13552856 C79.64448219 3.80154396 79.67125772 6.44222256 79.65359497 9.10818481 C79.65258789 9.81487305 79.65158081 10.52156128 79.65054321 11.24966431 C79.64529617 13.89913548 79.63133501 16.54858359 79.61843872 19.19802856 C79.59781372 25.11740356 79.57718872 31.03677856 79.55593872 37.13552856 C65.69593872 37.13552856 51.83593872 37.13552856 37.55593872 37.13552856 C37.55593872 41.09552856 37.55593872 45.05552856 37.55593872 49.13552856 C48.77593872 49.13552856 59.99593872 49.13552856 71.55593872 49.13552856 C71.57656372 54.55990356 71.59718872 59.98427856 71.61843872 65.57302856 C71.62754272 67.28675659 71.63664673 69.00048462 71.64602661 70.7661438 C71.64894588 72.11713584 71.65149441 73.46812875 71.65359497 74.81912231 C71.65871094 75.52653564 71.6638269 76.23394897 71.6690979 76.96279907 C71.66940904 78.68745474 71.61819633 80.41199694 71.55593872 82.13552856 C70.55593872 83.13552856 70.55593872 83.13552856 67.41311646 83.24905396 C66.02191175 83.24889489 64.63070111 83.24320363 63.23953247 83.23318481 C62.14295067 83.23106239 62.14295067 83.23106239 61.0242157 83.22889709 C58.6805824 83.22328265 56.33704333 83.21072778 53.99343872 83.19802856 C52.40815364 83.19301542 50.82286706 83.18845219 49.23757935 83.18435669 C45.34363329 83.17415777 41.44989195 83.15458543 37.55593872 83.13552856 C37.55593872 93.69552856 37.55593872 104.25552856 37.55593872 115.13552856 C23.03593872 115.13552856 8.51593872 115.13552856 -6.44406128 115.13552856 C-6.46660903 100.28904591 -6.48504088 85.44257383 -6.49587345 70.59607792 C-6.50103622 63.70305329 -6.50807856 56.81004004 -6.51950073 49.91702271 C-6.53050828 43.27106692 -6.5363375 36.62511988 -6.53893852 29.97915459 C-6.54079329 27.4372991 -6.54441488 24.8954443 -6.54979134 22.35359383 C-6.55699795 18.80701395 -6.55805238 15.26048367 -6.55758667 11.71389771 C-6.56118195 10.65150879 -6.56477722 9.58911987 -6.56848145 8.49453735 C-6.56710678 7.53394913 -6.56573212 6.5733609 -6.5643158 5.58366394 C-6.56523759 4.74391053 -6.56615938 3.90415712 -6.56710911 3.03895664 C-6.30397574 -1.03145602 -3.40395471 0.01358186 0 0 Z " fill="#E25454" transform="translate(347.4440612792969,552.8644714355469)"/>
<path d="M0 0 C13.54264475 -0.02254853 27.08527713 -0.04091364 40.62793636 -0.05181217 C46.91562024 -0.05704162 53.20329066 -0.06414039 59.4909668 -0.07543945 C65.55337723 -0.08626614 71.61577469 -0.09227637 77.67819405 -0.09487724 C79.99676277 -0.09673189 82.31533074 -0.10035325 84.63389397 -0.10573006 C87.86914508 -0.11293758 91.10434183 -0.11399106 94.33959961 -0.11352539 C95.30848114 -0.11712067 96.27736267 -0.12071594 97.27560425 -0.12442017 C98.59027428 -0.12235817 98.59027428 -0.12235817 99.9315033 -0.12025452 C101.08051825 -0.12163721 101.08051825 -0.12163721 102.25274563 -0.12304783 C104 0 104 0 105 1 C105.08861992 3.8116338 105.11522355 6.59858255 105.09765625 9.41015625 C105.0962413 10.25219101 105.09482635 11.09422577 105.09336853 11.96177673 C105.08775263 14.66205335 105.07519748 17.36224828 105.0625 20.0625 C105.05748705 21.88867068 105.05292379 23.71484266 105.04882812 25.54101562 C105.03862716 30.02740085 105.01905499 34.51360855 105 39 C95.1 39.33 85.2 39.66 75 40 C74.67 64.75 74.34 89.5 74 115 C59.81 115 45.62 115 31 115 C30.67 90.25 30.34 65.5 30 40 C15.15 39.505 15.15 39.505 0 39 C0 26.13 0 13.26 0 0 Z " fill="#E15252" transform="translate(94,553)"/>
<path d="M0 0 C0.66 0 1.32 0 2 0 C3.41015625 1.6171875 3.41015625 1.6171875 5.0625 3.875 C7.69403668 7.36192231 10.42583824 10.65209818 13.375 13.875 C16.47633108 17.26920552 19.43470852 20.72696957 22.3125 24.3125 C26.19676725 29.11868758 30.31183548 33.63927142 34.5402832 38.13916016 C38.63788257 42.5278961 42.38867907 47.10315872 46.0625 51.85546875 C49.20912691 55.33832798 51.26907482 55.93038808 55.9375 56.375 C60.0827061 56.55630126 62.00639664 54.73754087 65 52 C66.46180506 50.33012779 67.87728982 48.61885034 69.25 46.875 C72.23639306 43.14695303 75.277863 39.52632476 78.5 36 C81.55754191 32.64673728 84.47087751 29.225448 87.3125 25.6875 C91.26608482 20.79589418 95.44570349 16.17057099 99.7512207 11.59057617 C102.9694482 8.16021732 106.01903803 4.63916708 109 1 C110 3 110 3 109.2590332 5.39501953 C108.86031006 6.38099121 108.46158691 7.36696289 108.05078125 8.3828125 C107.61443359 9.46820313 107.17808594 10.55359375 106.72851562 11.671875 C106.26123047 12.81140625 105.79394531 13.9509375 105.3125 15.125 C104.86455078 16.24132812 104.41660156 17.35765625 103.95507812 18.5078125 C101.7932803 23.84465254 99.54333962 29.06140605 96.90014648 34.17626953 C95.03178528 37.96163927 93.60931902 41.93941037 92.11328125 45.8828125 C91.00303408 48.74271619 90.19486194 50.80513806 88 53 C85.0906442 53.14517744 82.280054 53.18630796 79.375 53.125 C78.17230469 53.11146484 78.17230469 53.11146484 76.9453125 53.09765625 C74.96341477 53.07406223 72.98167019 53.03819065 71 53 C71.0314209 54.83776001 71.0314209 54.83776001 71.06347656 56.71264648 C71.1362981 61.29162748 71.18195214 65.87055807 71.21972656 70.44995117 C71.23974646 72.4256249 71.26697092 74.40124009 71.30175781 76.37670898 C71.35070207 79.2291515 71.37306525 82.08080549 71.390625 84.93359375 C71.41127014 85.80584091 71.43191528 86.67808807 71.45318604 87.57676697 C71.45544542 93.85999878 69.94973255 98.46932986 67 104 C66.34 103.67 65.68 103.34 65 103 C64.30087155 100.83505181 63.69051222 98.64112819 63.125 96.4375 C60.66715653 87.3919517 57.37590501 81.10035604 51.390625 73.8828125 C50 72 50 72 50 70 C49.41734375 69.72929688 48.8346875 69.45859375 48.234375 69.1796875 C46.01083007 68.00571797 44.21258413 66.69020139 42.25 65.125 C37.46878532 61.48132338 32.64014785 58.60926489 26.75 57.25 C22.49601044 55.31636838 21.75904437 52.14380009 20 48 C19.25833916 46.36386872 18.51189685 44.72989985 17.76171875 43.09765625 C14.708106 36.39581813 11.78302435 29.64105166 8.875 22.875 C8.35035156 21.66457031 7.82570313 20.45414063 7.28515625 19.20703125 C4.56241244 12.87234376 2.05290392 6.58345051 0 0 Z " fill="#F6DD7E" transform="translate(265,495)"/>
<path d="M0 0 C0.88429687 -0.03738281 1.76859375 -0.07476563 2.6796875 -0.11328125 C5.125 0.3125 5.125 0.3125 6.9453125 2.33203125 C7.52925781 3.31236328 7.52925781 3.31236328 8.125 4.3125 C9.053125 3.6525 9.98125 2.9925 10.9375 2.3125 C15.77733169 -0.44748548 20.69609437 -0.55746331 26.125 0.3125 C29.3125 2.3125 29.3125 2.3125 31.125 4.3125 C31.888125 3.6525 32.65125 2.9925 33.4375 2.3125 C37.84091341 -0.62310894 43.04044265 -0.69404993 48.125 0.3125 C51.40773772 2.26191288 52.87012514 3.32116353 53.83203125 7.0625 C53.88423828 8.67125 53.88423828 8.67125 53.9375 10.3125 C53.98390625 11.53195312 54.0303125 12.75140625 54.078125 14.0078125 C54.09865195 15.44264658 54.11382351 16.87756262 54.125 18.3125 C54.13337891 19.17327148 54.14175781 20.03404297 54.15039062 20.92089844 C54.19554295 26.71886774 54.17749567 32.5146454 54.125 38.3125 C49.175 38.3125 44.225 38.3125 39.125 38.3125 C38.63 25.9375 38.63 25.9375 38.125 13.3125 C36.145 13.3125 34.165 13.3125 32.125 13.3125 C31.795 21.5625 31.465 29.8125 31.125 38.3125 C26.505 38.3125 21.885 38.3125 17.125 38.3125 C16.63 25.9375 16.63 25.9375 16.125 13.3125 C13.485 13.3125 10.845 13.3125 8.125 13.3125 C8.125 21.5625 8.125 29.8125 8.125 38.3125 C3.505 38.3125 -1.115 38.3125 -5.875 38.3125 C-5.89964928 33.06144558 -5.91783568 27.81042455 -5.92993164 22.55932617 C-5.93497218 20.77155979 -5.94180454 18.98379755 -5.95043945 17.19604492 C-5.9625173 14.63198832 -5.96823094 12.06798603 -5.97265625 9.50390625 C-5.97781754 8.6997377 -5.98297882 7.89556915 -5.98829651 7.06703186 C-5.98849215 5.14848285 -5.93701983 3.23004632 -5.875 1.3125 C-4.21607528 -0.34642472 -2.27452582 0.06263187 0 0 Z " fill="#5698F1" transform="translate(148.875,767.6875)"/>
<path d="M0 0 C1.76949095 -0.10815225 3.54087487 -0.18566083 5.3125 -0.25 C6.29863281 -0.29640625 7.28476562 -0.3428125 8.30078125 -0.390625 C11 0 11 0 12.85546875 2.015625 C13.23316406 2.67046875 13.61085938 3.3253125 14 4 C14.763125 3.34 15.52625 2.68 16.3125 2 C20.15999127 -0.53148476 23.83947772 -0.73953271 28.3671875 -0.59765625 C32.19518566 0.27131069 33.75495716 2.1529167 35.9765625 5.2734375 C38.39195615 9.34826191 38.22048548 13.05003032 38.25 17.6875 C38.270625 18.47833984 38.29125 19.26917969 38.3125 20.08398438 C38.35203658 26.06883351 37.55870046 30.85255138 33.65991211 35.6484375 C31.62307885 37.30690329 30.36766975 37.49092407 27.76953125 37.73046875 C26.96708984 37.81103516 26.16464844 37.89160156 25.33789062 37.97460938 C24.50451172 38.04486328 23.67113281 38.11511719 22.8125 38.1875 C21.5450293 38.3102832 21.5450293 38.3102832 20.25195312 38.43554688 C18.16907732 38.63559709 16.08464997 38.81937284 14 39 C14 42.3 14 45.6 14 49 C11.25494537 50.37252731 8.99672588 50.13229255 5.9375 50.125 C4.31134766 50.12886719 4.31134766 50.12886719 2.65234375 50.1328125 C0 50 0 50 -1 49 C-1.0979215 47.64510159 -1.12798058 46.28518938 -1.12939453 44.92675781 C-1.13254669 44.06205872 -1.13569885 43.19735962 -1.13894653 42.30645752 C-1.1369223 41.36485779 -1.13489807 40.42325806 -1.1328125 39.453125 C-1.13376923 38.48977234 -1.13472595 37.52641968 -1.13571167 36.53387451 C-1.13639384 34.48937922 -1.13453698 32.44488178 -1.13037109 30.40039062 C-1.12504653 27.27729375 -1.13030279 24.15434223 -1.13671875 21.03125 C-1.13605752 19.04687468 -1.13477543 17.06249946 -1.1328125 15.078125 C-1.13483673 14.14462219 -1.13686096 13.21111938 -1.13894653 12.24932861 C-1.12382629 8.04107069 -1.07822451 4.10089362 0 0 Z M14 11 C14 16.61 14 22.22 14 28 C19.74922159 29.66114309 19.74922159 29.66114309 23 27 C23.44236189 23.71575609 23.44236189 23.71575609 23.3125 20 C23.30669922 18.1128125 23.30669922 18.1128125 23.30078125 16.1875 C23.33303294 12.90799956 23.33303294 12.90799956 21 11 C18.69 11 16.38 11 14 11 Z " fill="#5B9BF2" transform="translate(501,768)"/>
<path d="M0 0 C1.51400391 0.01740234 1.51400391 0.01740234 3.05859375 0.03515625 C4.07050781 0.04417969 5.08242187 0.05320312 6.125 0.0625 C7.29869141 0.07990234 7.29869141 0.07990234 8.49609375 0.09765625 C9.15609375 1.41765625 9.81609375 2.73765625 10.49609375 4.09765625 C11.25921875 3.43765625 12.02234375 2.77765625 12.80859375 2.09765625 C17.31369603 -0.90574527 22.29080949 -0.6958322 27.49609375 0.09765625 C31.19809772 2.21308709 32.89414357 4.21782755 34.49609375 8.09765625 C36.01900939 17.1614606 35.79519781 25.57980652 32.24609375 34.09765625 C27.93740324 39.02187398 21.01305038 38.51860092 14.91015625 38.94921875 C14.11351562 38.99820313 13.316875 39.0471875 12.49609375 39.09765625 C12.16609375 42.39765625 11.83609375 45.69765625 11.49609375 49.09765625 C8.37980226 50.13642008 6.13665085 50.2312725 2.87109375 50.22265625 C1.88882813 50.22523438 0.9065625 50.2278125 -0.10546875 50.23046875 C-2.50390625 50.09765625 -2.50390625 50.09765625 -3.50390625 49.09765625 C-3.60221771 47.59895577 -3.63189081 46.09567086 -3.63330078 44.59375 C-3.63645294 43.63605713 -3.6396051 42.67836426 -3.64285278 41.69165039 C-3.64082855 40.65000732 -3.63880432 39.60836426 -3.63671875 38.53515625 C-3.63767548 37.47353271 -3.6386322 36.41190918 -3.63961792 35.31811523 C-3.64029989 33.06852153 -3.63844444 30.81892588 -3.63427734 28.56933594 C-3.62892935 25.11258554 -3.63422179 21.65596508 -3.640625 18.19921875 C-3.63996422 16.01953096 -3.63868307 13.83984325 -3.63671875 11.66015625 C-3.63874298 10.61851318 -3.64076721 9.57687012 -3.64285278 8.50366211 C-3.63970062 7.54596924 -3.63654846 6.58827637 -3.63330078 5.6015625 C-3.63250519 4.75408447 -3.63170959 3.90660645 -3.63088989 3.03344727 C-3.43589483 0.06086208 -2.99147635 0.11667224 0 0 Z M11.49609375 11.09765625 C11.49609375 16.70765625 11.49609375 22.31765625 11.49609375 28.09765625 C16.20667937 29.46976045 16.20667937 29.46976045 19.49609375 28.09765625 C19.6928174 26.36951464 19.87806174 24.64006428 20.05859375 22.91015625 C20.16300781 21.94722656 20.26742187 20.98429688 20.375 19.9921875 C20.49503359 17.12299743 20.31181736 14.84767059 19.49609375 12.09765625 C16.97434456 10.65044265 16.97434456 10.65044265 11.49609375 11.09765625 Z " fill="#5A9BF2" transform="translate(211.50390625,767.90234375)"/>
<path d="M0 0 C0.88429688 -0.03738281 1.76859375 -0.07476563 2.6796875 -0.11328125 C5.125 0.3125 5.125 0.3125 6.9453125 2.33203125 C7.52925781 3.31236328 7.52925781 3.31236328 8.125 4.3125 C8.888125 3.6525 9.65125 2.9925 10.4375 2.3125 C14.95447536 -0.68093498 19.91560457 -0.59953065 25.125 0.3125 C28.79136782 2.18134897 30.80416715 4.35000144 32.125 8.3125 C32.40493617 11.72424626 32.40248665 15.14052891 32.4375 18.5625 C32.46650391 19.49191406 32.49550781 20.42132812 32.52539062 21.37890625 C32.58232255 27.57134802 31.85770263 31.30423352 28.125 36.3125 C22.5246557 38.8269403 16.19881615 38.89513108 10.125 39.3125 C10.07601562 40.02277344 10.02703125 40.73304688 9.9765625 41.46484375 C9.90179687 42.38394531 9.82703125 43.30304687 9.75 44.25 C9.68039062 45.16652344 9.61078125 46.08304688 9.5390625 47.02734375 C9.40242187 47.78144531 9.26578125 48.53554688 9.125 49.3125 C6.37994537 50.68502731 4.12172588 50.44479255 1.0625 50.4375 C-0.56365234 50.44136719 -0.56365234 50.44136719 -2.22265625 50.4453125 C-4.875 50.3125 -4.875 50.3125 -5.875 49.3125 C-5.97331146 47.81379952 -6.00298456 46.31051461 -6.00439453 44.80859375 C-6.00754669 43.85090088 -6.01069885 42.89320801 -6.01394653 41.90649414 C-6.0119223 40.86485107 -6.00989807 39.82320801 -6.0078125 38.75 C-6.00876923 37.68837646 -6.00972595 36.62675293 -6.01071167 35.53295898 C-6.01139364 33.28336528 -6.00953819 31.03376963 -6.00537109 28.78417969 C-6.0000231 25.32742929 -6.00531554 21.87080883 -6.01171875 18.4140625 C-6.01105797 16.23437471 -6.00977682 14.054687 -6.0078125 11.875 C-6.00983673 10.83335693 -6.01186096 9.79171387 -6.01394653 8.71850586 C-6.01079437 7.76081299 -6.00764221 6.80312012 -6.00439453 5.81640625 C-6.00359894 4.96892822 -6.00280334 4.1214502 -6.00198364 3.24829102 C-5.75038929 -0.5871171 -3.31568371 0.09130144 0 0 Z M9.125 11.3125 C9.125 16.9225 9.125 22.5325 9.125 28.3125 C10.775 28.6425 12.425 28.9725 14.125 29.3125 C17.24423927 27.70365823 17.24423927 27.70365823 17.671875 25.359375 C18.07117357 20.84422959 18.34418785 16.74591035 17.125 12.3125 C14.60325081 10.8652864 14.60325081 10.8652864 9.125 11.3125 Z " fill="#5A9AF2" transform="translate(549.875,767.6875)"/>
<path d="M0 0 C0.74886475 0.00523682 1.49772949 0.01047363 2.26928711 0.01586914 C3.07817383 0.0190918 3.88706055 0.02231445 4.72045898 0.02563477 C5.5705957 0.03401367 6.42073242 0.04239258 7.29663086 0.05102539 C8.15063477 0.05553711 9.00463867 0.06004883 9.88452148 0.06469727 C12.00108749 0.07652166 14.11761771 0.0944577 16.23413086 0.11352539 C20.50909459 9.40051555 23.5138088 18.84718329 26.29663086 28.67602539 C26.55250977 29.56999023 26.80838867 30.46395508 27.07202148 31.38500977 C28.55789133 36.60656268 29.94787003 41.83924057 31.23413086 47.11352539 C27.44145894 48.04955959 24.29738521 48.09628791 20.42163086 47.67602539 C19.44581055 47.57418945 18.46999023 47.47235352 17.46459961 47.36743164 C16.72854492 47.28364258 15.99249023 47.19985352 15.23413086 47.11352539 C14.57413086 44.14352539 13.91413086 41.17352539 13.23413086 38.11352539 C8.94413086 38.11352539 4.65413086 38.11352539 0.23413086 38.11352539 C0.08975586 39.22727539 -0.05461914 40.34102539 -0.20336914 41.48852539 C-0.76586914 45.11352539 -0.76586914 45.11352539 -1.76586914 47.11352539 C-6.71586914 47.11352539 -11.66586914 47.11352539 -16.76586914 47.11352539 C-16.07343017 42.95889157 -15.3674378 39.51836915 -14.09399414 35.58618164 C-13.76149658 34.55299805 -13.42899902 33.51981445 -13.08642578 32.45532227 C-12.73314209 31.3731543 -12.3798584 30.29098633 -12.01586914 29.17602539 C-11.47724243 27.51216797 -11.47724243 27.51216797 -10.92773438 25.81469727 C-9.87844053 22.57943348 -8.82284252 19.34628698 -7.76586914 16.11352539 C-7.48565918 15.25098145 -7.20544922 14.3884375 -6.91674805 13.49975586 C-2.58408806 0.1661276 -2.58408806 0.1661276 0 0 Z M6.23413086 15.11352539 C5.72853178 16.54906564 5.22985596 17.98704559 4.73413086 19.42602539 C4.45569336 20.2265332 4.17725586 21.02704102 3.89038086 21.85180664 C3.09479978 24.20121961 3.09479978 24.20121961 3.23413086 27.11352539 C5.54413086 27.11352539 7.85413086 27.11352539 10.23413086 27.11352539 C9.68100351 23.08359757 9.07832466 19.09329615 8.23413086 15.11352539 C7.57413086 15.11352539 6.91413086 15.11352539 6.23413086 15.11352539 Z " fill="#5B9BF2" transform="translate(466.765869140625,758.886474609375)"/>
<path d="M0 0 C3.22288635 1.7750238 5.73759428 4.02217806 7.49609375 7.24609375 C9.27820929 14.44932998 9.8736984 23.49088446 6.49609375 30.24609375 C3.33736007 34.86699744 0.39658607 37.68045522 -5.16796875 38.765625 C-12.04015179 39.44559034 -18.2827496 39.60734139 -24.50390625 36.24609375 C-28.71887536 32.21565093 -30.34828238 28.01475093 -30.671875 22.2578125 C-30.74435444 9.92181171 -30.74435444 9.92181171 -28.50390625 5.24609375 C-21.099841 -1.72029277 -9.60474932 -2.8919136 0 0 Z M-13.50390625 9.24609375 C-15.7232508 12.57511058 -15.77520523 13.73403012 -15.75390625 17.62109375 C-15.7590625 18.55695312 -15.76421875 19.4928125 -15.76953125 20.45703125 C-15.49025886 23.38939137 -14.72539641 25.580143 -13.50390625 28.24609375 C-11.08770802 28.49640352 -11.08770802 28.49640352 -8.50390625 28.24609375 C-6.13206483 24.68833163 -6.20566231 22.96588768 -6.19140625 18.74609375 C-6.17464844 17.60140625 -6.15789062 16.45671875 -6.140625 15.27734375 C-6.26728408 12.29058853 -6.26728408 12.29058853 -7.7734375 10.33984375 C-9.72625339 8.889907 -9.72625339 8.889907 -13.50390625 9.24609375 Z " fill="#599AF2" transform="translate(384.50390625,768.75390625)"/>
<path d="M0 0 C4.31129945 3.03859113 5.85682425 5.71925266 7.1796875 10.8671875 C7.98106034 19.93206734 7.42693838 26.40590192 2.8046875 34.1796875 C-1.04359758 38.17598355 -6.63629409 38.51029333 -11.90625 38.88671875 C-17.43040431 38.84969359 -22.44253273 37.87283507 -26.7421875 34.24609375 C-31.32141589 29.17623375 -31.96827758 25.27637953 -32.0078125 18.4921875 C-32.02199219 17.39132812 -32.03617187 16.29046875 -32.05078125 15.15625 C-31.70596512 10.23531479 -30.69058648 6.90210791 -27.5078125 3.1171875 C-20.54811656 -2.70953469 -8.38843902 -3.36931761 0 0 Z M-16.8203125 10.8671875 C-17.26277182 13.85381455 -17.26277182 13.85381455 -17.1328125 17.2421875 C-17.12894531 18.38429688 -17.12507813 19.52640625 -17.12109375 20.703125 C-16.83926996 23.66776489 -16.36620591 25.36665871 -14.8203125 27.8671875 C-12.8403125 27.8671875 -10.8603125 27.8671875 -8.8203125 27.8671875 C-6.85240523 22.4265027 -6.18600107 17.52695059 -7.8203125 11.8671875 C-9.09557465 10.0549883 -9.09557465 10.0549883 -10.8203125 8.8671875 C-14.00521257 8.5898374 -14.00521257 8.5898374 -16.8203125 10.8671875 Z " fill="#5899F1" transform="translate(130.8203125,769.1328125)"/>
<path d="M0 0 C2.734375 0.0078125 2.734375 0.0078125 5.125 0.375 C7.25 2.875 7.25 2.875 8.125 5.375 C9.053125 4.55 9.98125 3.725 10.9375 2.875 C15.71278921 -0.53869962 20.45918952 -0.54307114 26.125 0.375 C29.25 1.875 29.25 1.875 31.125 4.375 C32.44399573 11.49925721 32.23909191 18.65213194 32.1875 25.875 C32.18298828 27.07898438 32.17847656 28.28296875 32.17382812 29.5234375 C32.16211962 32.47397999 32.1441868 35.42449666 32.125 38.375 C27.505 38.375 22.885 38.375 18.125 38.375 C18.06441406 37.15683594 18.00382812 35.93867187 17.94140625 34.68359375 C17.85693597 33.05988723 17.77229128 31.43618978 17.6875 29.8125 C17.64818359 29.01263672 17.60886719 28.21277344 17.56835938 27.38867188 C17.31751844 22.66128494 16.87178186 18.05023099 16.125 13.375 C13.815 13.045 11.505 12.715 9.125 12.375 C8.795 20.955 8.465 29.535 8.125 38.375 C3.505 38.375 -1.115 38.375 -5.875 38.375 C-5.89964928 33.12394558 -5.91783568 27.87292455 -5.92993164 22.62182617 C-5.93497218 20.83405979 -5.94180454 19.04629755 -5.95043945 17.25854492 C-5.9625173 14.69448832 -5.96823094 12.13048603 -5.97265625 9.56640625 C-5.97781754 8.7622377 -5.98297882 7.95806915 -5.98829651 7.12953186 C-5.98849215 5.21098285 -5.93701983 3.29254632 -5.875 1.375 C-4.21469118 -0.28530882 -2.27746403 0.08581749 0 0 Z " fill="#5597F1" transform="translate(296.875,767.625)"/>
<path d="M0 0 C3.63 0 7.26 0 11 0 C11.66 1.65 12.32 3.3 13 5 C13.44988281 4.6390625 13.89976562 4.278125 14.36328125 3.90625 C19.37748715 0.28878682 23.24886974 -0.55752369 29.38671875 -0.56640625 C32.92939804 0.20143904 34.4798521 1.38758183 37 4 C37.44779693 6.82044654 37.58840543 9.0227724 37.48828125 11.828125 C37.48120651 12.57713074 37.47413177 13.32613647 37.46684265 14.09783936 C37.43892138 16.48292237 37.37619535 18.86563056 37.3125 21.25 C37.28741382 22.86975768 37.2646012 24.48955228 37.24414062 26.109375 C37.18910325 30.07382739 37.10285322 34.03651153 37 38 C32.38 38 27.76 38 23 38 C22.505 25.625 22.505 25.625 22 13 C19.69 13 17.38 13 15 13 C14.67 21.25 14.34 29.5 14 38 C9.38 38 4.76 38 0 38 C0 25.46 0 12.92 0 0 Z " fill="#5496F1" transform="translate(398,768)"/>
<path d="M0 0 C0.74958984 -0.00773438 1.49917969 -0.01546875 2.27148438 -0.0234375 C6.10230258 -0.00974378 7.92896612 0.07764408 11.1875 2.25 C11.1875 2.91 11.1875 3.57 11.1875 4.25 C11.8475 4.25 12.5075 4.25 13.1875 4.25 C15.43722892 7.86535385 15.49465552 10.99811694 15.6015625 15.203125 C15.62092865 15.86334656 15.6402948 16.52356812 15.6602478 17.20379639 C15.71979349 19.30240153 15.76632722 21.40106228 15.8125 23.5 C15.85070294 24.9271066 15.88975602 26.35419072 15.9296875 27.78125 C16.02706786 31.27071305 16.10682976 34.75995085 16.1875 38.25 C11.8975 38.25 7.6075 38.25 3.1875 38.25 C3.1875 37.26 3.1875 36.27 3.1875 35.25 C2.5275 35.25 1.8675 35.25 1.1875 35.25 C1.1875 35.91 1.1875 36.57 1.1875 37.25 C-4.07415179 40.53853237 -6.9451821 40.48024408 -12.8125 39.25 C-16.3282469 38.27340364 -16.9309945 37.08346718 -19.125 34 C-20.5733455 31.26802281 -20.81353975 30.27651365 -20.6875 27.0625 C-18.82345462 21.07092555 -18.82345462 21.07092555 -16.25390625 18.984375 C-10.42278611 15.92940145 -5.31113796 15.81994308 1.1875 16.25 C1.1875 14.93 1.1875 13.61 1.1875 12.25 C-4.4225 12.25 -10.0325 12.25 -15.8125 12.25 C-17.41975635 9.03548731 -16.86998185 5.81387464 -16.8125 2.25 C-11.06736275 0.61039118 -5.96155194 -0.06314089 0 0 Z M-5.8125 24.25 C-5.8125 25.9 -5.8125 27.55 -5.8125 29.25 C-3.5025 29.25 -1.1925 29.25 1.1875 29.25 C1.1875 27.6 1.1875 25.95 1.1875 24.25 C-1.1225 24.25 -3.4325 24.25 -5.8125 24.25 Z " fill="#5B9BF2" transform="translate(269.8125,767.75)"/>
<path d="M0 0 C0 3.3 0 6.6 0 10 C-1.28777344 10.12117187 -2.57554688 10.24234375 -3.90234375 10.3671875 C-5.58077848 10.53596865 -7.25916135 10.70526613 -8.9375 10.875 C-10.21270508 10.99294922 -10.21270508 10.99294922 -11.51367188 11.11328125 C-12.32255859 11.19707031 -13.13144531 11.28085937 -13.96484375 11.3671875 C-14.7137085 11.44050293 -15.46257324 11.51381836 -16.23413086 11.58935547 C-16.81686768 11.72486816 -17.39960449 11.86038086 -18 12 C-19.50938632 15.01877265 -19.14366437 18.13079585 -19.125 21.4375 C-19.12886719 22.11876953 -19.13273437 22.80003906 -19.13671875 23.50195312 C-19.1306374 26.60648046 -18.98890312 29.03329065 -18 32 C-14.38132441 33.2062252 -11.07493749 33.10816918 -7.3125 33.0625 C-6.61060547 33.05798828 -5.90871094 33.05347656 -5.18554688 33.04882812 C-3.45699462 33.03706927 -1.72848635 33.01913454 0 33 C1.20272819 35.40545638 1.10071472 36.94996953 1.0625 39.625 C1.05347656 40.44226563 1.04445312 41.25953125 1.03515625 42.1015625 C1.02355469 42.72804688 1.01195312 43.35453125 1 44 C-6.8029652 47.01314502 -16.4262961 47.45377275 -24.5 45 C-29.03862395 42.93428056 -32.1993171 39.02648904 -35 35 C-36.36809594 30.89571218 -36.26356385 27.04985669 -36.3125 22.75 C-36.34150391 21.91597656 -36.37050781 21.08195313 -36.40039062 20.22265625 C-36.47225472 13.17997499 -34.56848103 9.45757061 -30.375 3.8125 C-21.75129135 -2.76875134 -10.01290311 -4.45017916 0 0 Z " fill="#5A9AF2" transform="translate(95,761)"/>
<path d="M0 0 C4.29 0 8.58 0 13 0 C14 1 14 1 14.11352539 4.51000977 C14.11336626 6.07048422 14.10767142 7.63096393 14.09765625 9.19140625 C14.0962413 10.01124496 14.09482635 10.83108368 14.09336853 11.67576599 C14.08775289 14.30471382 14.07519779 16.93357773 14.0625 19.5625 C14.05748701 21.34049357 14.05292376 23.11848846 14.04882812 24.89648438 C14.03777839 29.26435545 14.02050331 33.63216348 14 38 C9.38 38 4.76 38 0 38 C0 25.46 0 12.92 0 0 Z " fill="#5698F1" transform="translate(335,768)"/>
<path d="M0 0 C2.76092322 2.66266972 3.89078635 4.35114242 4.53125 8.15625 C4.5209375 9.2596875 4.510625 10.363125 4.5 11.5 C4.5103125 12.6034375 4.520625 13.706875 4.53125 14.84375 C3.89127933 18.64592866 2.73734883 20.32141358 0 23 C-3.4375 23.6875 -3.4375 23.6875 -7 23 C-10.49240565 20.25065938 -11.73712989 18.71241101 -12.41015625 14.328125 C-12.5695528 9.19971412 -12.50484772 5.04405506 -9 1 C-5.87139505 -0.56430248 -3.44397075 -0.35627284 0 0 Z " fill="#FFFDF4" transform="translate(389,693)"/>
<path d="M0 0 C3.97764662 0.63926464 5.13185681 1.37461494 7.5 4.5625 C9.21668877 9.7125663 9.16478218 14.50356384 7.125 19.5 C5.5 22.5625 5.5 22.5625 3.5 23.5625 C0.125 23.9375 0.125 23.9375 -3.5 23.5625 C-6.26092322 20.89983028 -7.39078635 19.21135758 -8.03125 15.40625 C-8.0209375 14.3028125 -8.010625 13.199375 -8 12.0625 C-8.01546875 10.40734375 -8.01546875 10.40734375 -8.03125 8.71875 C-7.15980354 3.54133278 -5.23693284 0.84164992 0 0 Z " fill="#FFFDF6" transform="translate(366.5,692.4375)"/>
<path d="M0 0 C6.27 0 12.54 0 19 0 C19 1.32 19 2.64 19 4 C14.71 4 10.42 4 6 4 C6 5.65 6 7.3 6 9 C9.96 9 13.92 9 18 9 C18 10.65 18 12.3 18 14 C14.04 14 10.08 14 6 14 C6 15.65 6 17.3 6 19 C10.29 19 14.58 19 19 19 C19 20.32 19 21.64 19 23 C12.73 23 6.46 23 0 23 C0 15.41 0 7.82 0 0 Z " fill="#FFFBED" transform="translate(309,693)"/>
<path d="M0 0 C1.98 0 3.96 0 6 0 C7.80259973 2.17291309 9.00693792 3.93383067 10.3125 6.375 C10.65861328 6.97828125 11.00472656 7.5815625 11.36132812 8.203125 C12.63557983 10.4386543 13.84923907 12.69847813 15 15 C15.33 10.05 15.66 5.1 16 0 C17.32 0 18.64 0 20 0 C20 7.59 20 15.18 20 23 C18.02 23 16.04 23 14 23 C10.04 16.07 10.04 16.07 6 9 C5.67 13.62 5.34 18.24 5 23 C3.35 23 1.7 23 0 23 C0 15.41 0 7.82 0 0 Z " fill="#FFFDF6" transform="translate(261,693)"/>
<path d="M0 0 C0.845625 -0.00773438 1.69125 -0.01546875 2.5625 -0.0234375 C5.49180584 0.45539134 6.89532233 1.29955396 9 3.375 C9 4.365 9 5.355 9 6.375 C7.33388095 6.417721 5.66617115 6.41563832 4 6.375 C3.67 6.045 3.34 5.715 3 5.375 C0.67182036 5.00739269 -1.6618385 4.67258419 -4 4.375 C-4 5.695 -4 7.015 -4 8.375 C-3.32453125 8.47296875 -2.6490625 8.5709375 -1.953125 8.671875 C5.29244538 9.88645038 5.29244538 9.88645038 8.625 12.1875 C10.35295649 14.93652169 10.71600641 16.19274927 10 19.375 C7.75129807 22.2440335 5.96400022 23.23382245 2.359375 23.76171875 C-5.09214301 24.0506145 -5.09214301 24.0506145 -8.6875 21.375 C-9.120625 20.715 -9.55375 20.055 -10 19.375 C-9.505 17.89 -9.505 17.89 -9 16.375 C-7.68 16.375 -6.36 16.375 -5 16.375 C-4.67 17.035 -4.34 17.695 -4 18.375 C-1.36 18.375 1.28 18.375 4 18.375 C4 17.385 4 16.395 4 15.375 C3.31292969 15.19324219 2.62585938 15.01148438 1.91796875 14.82421875 C1.01691406 14.57285156 0.11585938 14.32148437 -0.8125 14.0625 C-1.70582031 13.81886719 -2.59914062 13.57523438 -3.51953125 13.32421875 C-6.09730428 12.33776387 -7.34036236 11.55731573 -9 9.375 C-9.4375 6.375 -9.4375 6.375 -9 3.375 C-6.10330692 0.56408598 -3.98676034 -0.03646427 0 0 Z " fill="#FFFCF3" transform="translate(239,692.625)"/>
<path d="M0 0 C1.63671875 1.1015625 1.63671875 1.1015625 4.01171875 3.0390625 C3.33756454 7.40025763 1.81544772 11.26377538 0.07421875 15.2890625 C-0.19068359 15.92585937 -0.45558594 16.56265625 -0.72851562 17.21875 C-2.74238585 21.9161148 -2.74238585 21.9161148 -4.98828125 23.0390625 C-6.28670466 20.3546476 -7.57710984 17.66684146 -8.86328125 14.9765625 C-9.22808594 14.22439453 -9.59289062 13.47222656 -9.96875 12.69726562 C-12.11114992 8.1982258 -13.76870151 3.87244959 -14.98828125 -0.9609375 C-10.16668297 -2.56813693 -4.62234787 -2.23398345 0 0 Z " fill="#3185E4" transform="translate(511.98828125,598.9609375)"/>
<path d="M0 0 C3 1.3125 3 1.3125 5 3 C5.33 3.99 5.66 4.98 6 6 C4.35 6.33 2.7 6.66 1 7 C0.67 6.34 0.34 5.68 0 5 C-2.97 5 -5.94 5 -9 5 C-9 9.29 -9 13.58 -9 18 C-4.48013251 18.27165179 -4.48013251 18.27165179 0 18 C0.66 17.01 1.32 16.02 2 15 C3.32 15.33 4.64 15.66 6 16 C5.63595523 18.63932462 5.24498227 19.77318495 3.26171875 21.609375 C-0.60933344 23.98950381 -4.60342951 23.66161983 -9 23 C-11.93423195 21.20353146 -13.47205355 20.0558929 -15 17 C-15.51124099 11.79539913 -15.86132441 7.43554069 -13.125 2.875 C-9.06642663 -0.70609415 -5.22195511 -0.51407848 0 0 Z " fill="#FFFDF6" transform="translate(300,693)"/>
<path d="M0 0 C3.03467393 0.08844223 4.03584685 0.31846385 6.6875 2 C8.125 4.375 8.125 4.375 8.375 7.125 C6.50294482 11.99234348 2.95415464 14.93835551 -0.875 18.375 C2.095 18.705 5.065 19.035 8.125 19.375 C8.125 20.695 8.125 22.015 8.125 23.375 C2.845 23.375 -2.435 23.375 -7.875 23.375 C-6.84340855 17.18545128 -6.61453955 16.54519743 -2.3125 12.6875 C0.15422666 10.5200603 0.15422666 10.5200603 2.125 8.375 C2.125 7.385 2.125 6.395 2.125 5.375 C-1.175 5.705 -4.475 6.035 -7.875 6.375 C-4.92584746 0.47669492 -4.92584746 0.47669492 0 0 Z " fill="#FFFDF7" transform="translate(347.875,692.625)"/>
<path d="M0 0 C0 6.27 0 12.54 0 19 C1.65 19 3.3 19 5 19 C5 20.32 5 21.64 5 23 C-0.28 23 -5.56 23 -11 23 C-11 21.68 -11 20.36 -11 19 C-9.02 19 -7.04 19 -5 19 C-5 14.38 -5 9.76 -5 5 C-6.65 5.66 -8.3 6.32 -10 7 C-10 5.68 -10 4.36 -10 3 C-6.33920232 0.07136186 -4.88636103 0 0 0 Z " fill="#FFFDF4" transform="translate(407,693)"/>
<path d="M0 0 C2.64819502 1.04534014 3.84683949 1.52461498 5.375 3.9375 C5.8125 7.4375 5.8125 7.4375 5.375 10.9375 C3.29808202 13.32210953 1.96943084 13.8334746 -1.125 14.375 C-4.52334723 13.78028924 -5.63741034 12.73484842 -7.625 9.9375 C-8.1875 6.9375 -8.1875 6.9375 -7.625 3.9375 C-5.12171555 1.14812589 -3.80877374 -0.09068509 0 0 Z " fill="#609EF2" transform="translate(342.625,751.0625)"/>
<path d="M0 0 C1.65 0 3.3 0 5 0 C5 7.59 5 15.18 5 23 C3.35 23 1.7 23 0 23 C0 15.41 0 7.82 0 0 Z " fill="#FFFDF9" transform="translate(252,693)"/>
<path d="M0 0 C3.69230769 0.69230769 3.69230769 0.69230769 5 2 C5.12548989 3.95530764 5.17575363 5.91570479 5.1875 7.875 C5.20167969 8.94492187 5.21585937 10.01484375 5.23046875 11.1171875 C5 14 5 14 3 17 C1.68 16.67 0.36 16.34 -1 16 C-1.02685095 13.52076199 -1.04676547 11.0418116 -1.0625 8.5625 C-1.07506836 7.50192383 -1.07506836 7.50192383 -1.08789062 6.41992188 C-1.09653588 4.61306441 -1.05220011 2.80612397 -1 1 C-0.67 0.67 -0.34 0.34 0 0 Z " fill="#FFE683" transform="translate(365,696)"/>
<path d="M0 0 C1.32 0.33 2.64 0.66 4 1 C4 5.62 4 10.24 4 15 C2.35 15.33 0.7 15.66 -1 16 C-2.87243981 14.12756019 -2.17380392 11.06340482 -2.1875 8.5625 C-2.20167969 7.38816406 -2.21585937 6.21382812 -2.23046875 5.00390625 C-2 2 -2 2 0 0 Z " fill="#FFE680" transform="translate(384,696)"/>
<path d="M0 0 C16.17 0 32.34 0 49 0 C48.67 0.99 48.34 1.98 48 3 C46.75476563 2.84660156 45.50953125 2.69320313 44.2265625 2.53515625 C35.63809307 1.67630931 26.99835972 1.63323125 18.375 1.4375 C16.58983538 1.39422426 14.80467899 1.35060737 13.01953125 1.30664062 C8.67977252 1.2004911 4.33992822 1.09896742 0 1 C0 0.67 0 0.34 0 0 Z " fill="#222222" transform="translate(474,287)"/>
<path d="M0 0 C0.66 0 1.32 0 2 0 C0.52278578 3.45201639 -1.43794001 5.64961936 -4.125 8.25 C-4.84945313 8.95640625 -5.57390625 9.6628125 -6.3203125 10.390625 C-6.87460937 10.92171875 -7.42890625 11.4528125 -8 12 C-8.66 11.67 -9.32 11.34 -10 11 C-8.38405168 8.95880212 -6.7143618 6.95927063 -5 5 C-4.34 5 -3.68 5 -3 5 C-2.690625 4.360625 -2.38125 3.72125 -2.0625 3.0625 C-1 1 -1 1 0 0 Z " fill="#EC9393" transform="translate(457,564)"/>
<path d="M0 0 C1.47668858 0.0133035 2.95331108 0.03716415 4.4296875 0.0703125 C5.18378906 0.07933594 5.93789063 0.08835937 6.71484375 0.09765625 C8.57826004 0.1212438 10.44151343 0.15711531 12.3046875 0.1953125 C11.9746875 1.1853125 11.6446875 2.1753125 11.3046875 3.1953125 C10.66402344 3.123125 10.02335938 3.0509375 9.36328125 2.9765625 C4.30910941 2.43423706 -0.61310971 2.08482983 -5.6953125 2.1953125 C-3.6953125 0.1953125 -3.6953125 0.1953125 0 0 Z " fill="#818181" transform="translate(510.6953125,286.8046875)"/>
<path d="M0 0 C1 2 1 2 0.375 4.4375 C-1.89465854 8.66731818 -5.86070819 9.93035409 -10 12 C-3.84965831 3.55353075 -3.84965831 3.55353075 0 0 Z " fill="#DFC974" transform="translate(374,496)"/>
<path d="M0 0 C0.66 0 1.32 0 2 0 C2.33 1.65 2.66 3.3 3 5 C2.401875 5.061875 1.80375 5.12375 1.1875 5.1875 C-1.87143458 6.3236757 -2.55041099 8.17330142 -4 11 C-4 7.17798532 -2.7916472 2.7916472 0 0 Z " fill="#6BA4ED" transform="translate(507,41)"/>
<path d="M0 0 C2 0 2 0 3.625 1.5625 C5.45512039 4.80680433 5.21131282 7.33724439 5 11 C2.77174356 8.77174356 2.30760631 7.34238372 1.375 4.375 C1.11460937 3.55773437 0.85421875 2.74046875 0.5859375 1.8984375 C0.39257812 1.27195312 0.19921875 0.64546875 0 0 Z " fill="#DBCA88" transform="translate(265,495)"/>
</svg>
